<?xml version="1.0" encoding="UTF-8" standalone="no"?>
<svg
   xmlns:dc="http://purl.org/dc/elements/1.1/"
   xmlns:cc="http://creativecommons.org/ns#"
   xmlns:rdf="http://www.w3.org/1999/02/22-rdf-syntax-ns#"
   xmlns:svg="http://www.w3.org/2000/svg"
   xmlns="http://www.w3.org/2000/svg"
   id="svg1942"
   version="1.1"
   viewBox="0 0 190.90024 319.45074"
   height="319.45074mm"
   width="190.90024mm">
  <defs
     id="defs1936" />
  <metadata
     id="metadata1939">
    <rdf:RDF>
      <cc:Work
         rdf:about="">
        <dc:format>image/svg+xml</dc:format>
        <dc:type
           rdf:resource="http://purl.org/dc/dcmitype/StillImage" />
        <dc:title></dc:title>
      </cc:Work>
    </rdf:RDF>
  </metadata>
  <g
     transform="translate(-2.8236897,19.963471)"
     id="layer1">
    <path
       id="path1130"
       d="M 3.1650556,299.23447 46.783502,160.25263 72.107909,147.77942 c 13.925346,-8.75645 16.503089,-17.5129 21.355648,-26.26935 3.005042,35.93022 47.882373,35.81535 81.075903,35.71875 l 18.8988,141.74109 -11.71726,-0.0378 -155.537199,0.1134 z"
       style="display:inline;fill:none;stroke:#000000;stroke-width:0.5;stroke-linecap:butt;stroke-linejoin:miter;stroke-miterlimit:4;stroke-dasharray:none;stroke-opacity:1" />
    <path
       id="path1132"
       d="m 96.865347,69.916317 -0.188989,-3.77976 c 0.188989,3.77976 5.608292,3.47703 5.669642,19.84375 2.16336,-5.3685 3.71669,-10.94033 11.71727,-14.36309 1.95567,0.62792 2.71946,1.49932 6.2366,1.32291 -6.6185,0.54379 -12.97324,6.89029 -19.0878,18.52083 -0.42316,-7.52346 0.35622,-15.44777 -4.346723,-21.54464 z"
       style="display:inline;fill:none;stroke:#000000;stroke-width:0.5;stroke-linecap:butt;stroke-linejoin:miter;stroke-miterlimit:4;stroke-dasharray:none;stroke-opacity:1" />
    <path
       id="path1112"
       d="M 51.785849,144.59881 C 87.531876,130.88168 87.3687,99.518347 94.810868,83.126817 l 4.813699,10.45081 C 89.978068,112.55809 99.461698,136.16896 47.841835,157.6068 Z"
       style="display:inline;fill:#000000;stroke:#000000;stroke-width:0.5;stroke-linecap:butt;stroke-linejoin:miter;stroke-miterlimit:4;stroke-dasharray:none;stroke-opacity:1" />
    <path
       id="path1114"
       d="m 96.414489,74.841467 c 3.19088,3.29541 2.32986,9.12326 2.939968,14.03165 l -3.485258,-7.3338 z"
       style="display:inline;fill:#000000;stroke:#000000;stroke-width:0.5;stroke-linecap:butt;stroke-linejoin:miter;stroke-miterlimit:4;stroke-dasharray:none;stroke-opacity:1" />
    <path
       id="path1116"
       d="m 119.15298,75.276497 c -7.28792,5.47085 -12.19032,9.85963 -14.13541,15.68183 6.19174,0.1958 12.38349,-5.99356 18.57523,-9.6217 z"
       style="display:inline;fill:none;stroke:#000000;stroke-width:0.5;stroke-linecap:butt;stroke-linejoin:miter;stroke-miterlimit:4;stroke-dasharray:none;stroke-opacity:1" />
    <path
       id="path1118"
       d="m 170.98269,143.93064 c -39.05336,-1.88095 -79.947162,-0.20745 -57.99749,-52.919373 -3.92438,1.41895 -7.84875,2.21582 -11.77313,2.56636 -25.445302,74.157143 59.78985,56.614003 72.44331,60.509253 z"
       style="display:inline;fill:#000000;stroke:#000000;stroke-width:0.5;stroke-linecap:butt;stroke-linejoin:miter;stroke-miterlimit:4;stroke-dasharray:none;stroke-opacity:1" />
    <path
       id="path1120"
       d="m 85.189171,166.51491 c -2.050656,0.14197 -4.652611,-1.22374 -4.409948,-2.53906 1.759087,-0.18617 3.512253,-0.35118 4.409948,2.53906 z"
       style="display:inline;fill:none;stroke:#000000;stroke-width:0.5;stroke-linecap:butt;stroke-linejoin:miter;stroke-miterlimit:4;stroke-dasharray:none;stroke-opacity:1" />
    <path
       id="path1131"
       d="m 87.594596,181.07572 c 1.171654,-5.07735 4.583443,-8.87148 10.284512,-10.55177 -1.980969,-1.23794 -4.236291,-3.22533 -8.279992,1.60362 2.643992,-4.24926 7.607292,-7.076 11.086324,-11.75986 2.49117,-3.35389 0.8599,-6.10878 -1.191982,-7.61181 0.159899,5.95229 -9.230881,9.94547 -10.42888,17.23352 -0.591457,-3.32355 -0.117758,-6.02269 -4.142679,-11.35896 -0.793075,-1.80101 -2.104877,-2.46082 -1.737251,-6.81537 -1.920883,2.95436 -5.167488,5.10911 -0.395531,9.35443 2.585093,2.2998 4.41606,4.71141 4.939114,10.15624 -1.426749,-3.17382 -4.006051,-4.58138 -6.943637,-3.4745 3.912375,3.05875 6.79964,7.27067 6.810002,13.22446 z"
       style="display:inline;fill:none;stroke:#000000;stroke-width:0.5;stroke-linecap:butt;stroke-linejoin:miter;stroke-miterlimit:4;stroke-dasharray:none;stroke-opacity:1" />
    <path
       id="path1120-4"
       d="m 96.682218,167.04408 c 2.050661,0.14197 4.652642,-1.22374 4.409982,-2.53906 -1.759103,-0.18617 -3.512282,-0.35118 -4.409982,2.53906 z"
       style="display:inline;fill:none;stroke:#000000;stroke-width:0.5;stroke-linecap:butt;stroke-linejoin:miter;stroke-miterlimit:4;stroke-dasharray:none;stroke-opacity:1" />
    <path
       id="path1148"
       d="m 97.734688,68.253227 -0.51839,-6.50797 c 4.566562,4.33975 10.511842,7.30078 16.846972,9.87196 -4.64115,3.41375 -6.41006,0.88636 -11.71727,14.36309 -0.42989,-14.76674 -2.892131,-13.2747 -4.611312,-17.72708 z"
       style="display:inline;fill:none;stroke:#000000;stroke-width:0.5;stroke-linecap:butt;stroke-linejoin:miter;stroke-miterlimit:4;stroke-dasharray:none;stroke-opacity:1" />
    <path
       id="path1150"
       d="m 97.216298,61.745257 c -5.554551,-3.97506 -7.806939,-8.55052 -9.488067,-13.22984 -2.761787,1.60362 -5.701752,-0.35636 -8.819896,-5.87993 -0.362979,-7.114 0.748739,-8.1679 4.14805,-7.75082 1.508403,2.27613 2.156781,5.41228 4.939115,6.41447 -1.169434,-2.97712 1.381072,-10.20788 0.534538,-13.36348 l 2.40543,-4.94448 6.013561,-3.0736 -5.34539,4.14268 c 12.266151,-0.37809 18.959601,-8.55796 28.063301,-13.36348 -1.9852,3.45937 -5.47524,6.01584 -9.2208,8.41899 13.20489,-1.64531 23.0822,-11.3809299 22.45064,-15.2343629 1.1683,7.7955429 5.22305,12.1798229 10.28988,15.3680029 l -1.87089,12.6953 c 0.34121,5.27145 1.55179,9.67352 0.93544,15.90253 -1.08823,6.4811 -12.93604,22.95526 -21.95134,25.09289 -2.20938,0.0811 -4.27913,-0.39634 -6.2366,-1.32291 -5.89638,-1.74668 -11.4531,-5.3615 -16.846972,-9.87196 z"
       style="display:inline;fill:none;stroke:#000000;stroke-width:0.5;stroke-linecap:butt;stroke-linejoin:miter;stroke-miterlimit:4;stroke-dasharray:none;stroke-opacity:1" />
    <path
       id="path1152"
       d="m 84.581121,44.780907 c -1.46612,-2.26214 -1.235451,-3.84557 -0.188987,-5.10268 l -2.394084,-2.67689"
       style="display:inline;fill:none;stroke:#000000;stroke-width:0.5;stroke-linecap:butt;stroke-linejoin:miter;stroke-miterlimit:4;stroke-dasharray:none;stroke-opacity:1" />
    <path
       id="path1154"
       d="m 106.31475,53.379857 c 5.00819,5.86389 11.33929,4.08947 17.00893,5.19718 2.18242,-0.70654 4.239,-1.22432 6.89807,-2.64584 l -2.45685,2.55134 c -5.42755,10.18454 -18.49053,1.33298 -21.45015,-5.10268 z"
       style="display:inline;fill:none;stroke:#000000;stroke-width:0.5;stroke-linecap:butt;stroke-linejoin:miter;stroke-miterlimit:4;stroke-dasharray:none;stroke-opacity:1" />
    <path
       id="path1160"
       d="m 127.7649,58.482537 c -10.97044,4.377 -19.67253,-1.67979 -21.45015,-5.10268"
       style="display:inline;fill:none;stroke:#000000;stroke-width:0.5;stroke-linecap:butt;stroke-linejoin:miter;stroke-miterlimit:4;stroke-dasharray:none;stroke-opacity:1" />
    <path
       id="path1162"
       d="m 126.76569,24.327527 -5.87993,15.7689 c 0.0715,5.22931 2.06967,8.53202 5.34539,10.55714 -0.90185,1.85629 -1.92002,3.55749 -3.87541,4.00905"
       style="display:inline;fill:none;stroke:#000000;stroke-width:0.5;stroke-linecap:butt;stroke-linejoin:miter;stroke-miterlimit:4;stroke-dasharray:none;stroke-opacity:1" />
    <path
       id="path1164"
       d="m 116.34218,51.188107 c -0.30934,0.94534 -1.33486,1.60421 0,3.20724"
       style="display:inline;fill:none;stroke:#000000;stroke-width:0.5;stroke-linecap:butt;stroke-linejoin:miter;stroke-miterlimit:4;stroke-dasharray:none;stroke-opacity:1" />
    <path
       id="path1166"
       d="m 120.85458,54.203207 c -1.24884,-1.0818 -2.38734,-0.73405 -3.49751,-0.0192"
       style="display:inline;fill:none;stroke:#000000;stroke-width:0.5;stroke-linecap:butt;stroke-linejoin:miter;stroke-miterlimit:4;stroke-dasharray:none;stroke-opacity:1" />
    <path
       id="path1166-7"
       d="m 131.38737,57.291997 c -0.52964,-1.56505 -1.68758,-1.84128 -3.00685,-1.78656"
       style="display:inline;fill:none;stroke:#000000;stroke-width:0.5;stroke-linecap:butt;stroke-linejoin:miter;stroke-miterlimit:4;stroke-dasharray:none;stroke-opacity:1" />
    <path
       id="path1166-0"
       d="m 107.90226,53.909027 c -1.24884,-1.0818 -2.38734,-0.73405 -3.49751,-0.0192"
       style="display:inline;fill:none;stroke:#000000;stroke-width:0.5;stroke-linecap:butt;stroke-linejoin:miter;stroke-miterlimit:4;stroke-dasharray:none;stroke-opacity:1" />
    <ellipse
       ry="0.19598766"
       rx="0.18091168"
       cy="44.615543"
       cx="96.062149"
       id="path1202"
       style="display:inline;opacity:1;fill:#000000;fill-opacity:1;stroke:#000000;stroke-width:0.5;stroke-miterlimit:4;stroke-dasharray:none;stroke-opacity:1" />
    <ellipse
       ry="0.19598766"
       rx="0.18091168"
       cy="47.143253"
       cx="99.227707"
       id="path1202-9"
       style="display:inline;opacity:1;fill:#000000;fill-opacity:1;stroke:#000000;stroke-width:0.5;stroke-miterlimit:4;stroke-dasharray:none;stroke-opacity:1" />
    <ellipse
       ry="0.19598766"
       rx="0.18091168"
       cy="44.213932"
       cx="101.21207"
       id="path1202-0"
       style="display:inline;opacity:1;fill:#000000;fill-opacity:1;stroke:#000000;stroke-width:0.5;stroke-miterlimit:4;stroke-dasharray:none;stroke-opacity:1" />
    <ellipse
       ry="0.19598766"
       rx="0.18091168"
       cy="48.277164"
       cx="105.88952"
       id="path1202-01"
       style="display:inline;opacity:1;fill:#000000;fill-opacity:1;stroke:#000000;stroke-width:0.5;stroke-miterlimit:4;stroke-dasharray:none;stroke-opacity:1" />
    <ellipse
       ry="0.19598766"
       rx="0.18091168"
       cy="44.308445"
       cx="105.88952"
       id="path1202-95"
       style="display:inline;opacity:1;fill:#000000;fill-opacity:1;stroke:#000000;stroke-width:0.5;stroke-miterlimit:4;stroke-dasharray:none;stroke-opacity:1" />
    <ellipse
       ry="0.19598766"
       rx="0.18091168"
       cy="47.143253"
       cx="108.29913"
       id="path1202-6"
       style="display:inline;opacity:1;fill:#000000;fill-opacity:1;stroke:#000000;stroke-width:0.5;stroke-miterlimit:4;stroke-dasharray:none;stroke-opacity:1" />
    <ellipse
       ry="0.19598766"
       rx="0.18091168"
       cy="45.20612"
       cx="112.17339"
       id="path1202-8"
       style="display:inline;opacity:1;fill:#000000;fill-opacity:1;stroke:#000000;stroke-width:0.5;stroke-miterlimit:4;stroke-dasharray:none;stroke-opacity:1" />
    <ellipse
       ry="0.19598766"
       rx="0.18091168"
       cy="46.009342"
       cx="115.57517"
       id="path1202-99"
       style="display:inline;opacity:1;fill:#000000;fill-opacity:1;stroke:#000000;stroke-width:0.5;stroke-miterlimit:4;stroke-dasharray:none;stroke-opacity:1" />
    <ellipse
       ry="0.19598766"
       rx="0.18091168"
       cy="43.835972"
       cx="113.63804"
       id="path1202-67"
       style="display:inline;opacity:1;fill:#000000;fill-opacity:1;stroke:#000000;stroke-width:0.5;stroke-miterlimit:4;stroke-dasharray:none;stroke-opacity:1" />
    <ellipse
       ry="0.19598766"
       rx="0.18091168"
       cy="45.575459"
       cx="128.08594"
       id="path1202-99-4"
       style="display:inline;opacity:1;fill:#000000;fill-opacity:1;stroke:#000000;stroke-width:0.5;stroke-miterlimit:4;stroke-dasharray:none;stroke-opacity:1" />
    <ellipse
       ry="0.19598766"
       rx="0.18091168"
       cy="42.368198"
       cx="132.09496"
       id="path1202-99-48"
       style="display:inline;opacity:1;fill:#000000;fill-opacity:1;stroke:#000000;stroke-width:0.5;stroke-miterlimit:4;stroke-dasharray:none;stroke-opacity:1" />
    <ellipse
       ry="0.19598766"
       rx="0.18091168"
       cy="46.377262"
       cx="135.03493"
       id="path1202-99-3"
       style="display:inline;opacity:1;fill:#000000;fill-opacity:1;stroke:#000000;stroke-width:0.5;stroke-miterlimit:4;stroke-dasharray:none;stroke-opacity:1" />
    <ellipse
       ry="0.19598766"
       rx="0.18091168"
       cy="41.031879"
       cx="137.97491"
       id="path1202-99-35"
       style="display:inline;opacity:1;fill:#000000;fill-opacity:1;stroke:#000000;stroke-width:0.5;stroke-miterlimit:4;stroke-dasharray:none;stroke-opacity:1" />
    <ellipse
       ry="0.19598766"
       rx="0.18091168"
       cy="43.303654"
       cx="137.57399"
       id="path1202-99-7"
       style="display:inline;opacity:1;fill:#000000;fill-opacity:1;stroke:#000000;stroke-width:0.5;stroke-miterlimit:4;stroke-dasharray:none;stroke-opacity:1" />
    <path
       id="path1300"
       d="m 110.17887,36.688737 c -1.51287,-4.78471 -1.65544,-10.8583 -11.559412,-8.61944 -4.20651,0.95091 -6.34795,2.02804 -7.951264,-0.80181 0.257104,1.7526 0.555493,5.00478 3.346244,5.67948 4.627599,-8.05852 15.135712,-1.96244 16.164432,3.74177 z"
       style="display:inline;fill:#000000;stroke:#000000;stroke-width:0.5;stroke-linecap:butt;stroke-linejoin:miter;stroke-miterlimit:4;stroke-dasharray:none;stroke-opacity:1" />
    <path
       id="path1302"
       d="m 94.014438,32.946967 c 0.946359,8.34694 8.501972,8.9352 17.567602,7.75082 l -0.9969,-3.20724 c -3.27241,-9.06351 -12.946241,-11.04193 -16.570702,-4.54358 z"
       style="display:inline;fill:none;stroke:#000000;stroke-width:0.5;stroke-linecap:butt;stroke-linejoin:miter;stroke-miterlimit:4;stroke-dasharray:none;stroke-opacity:1" />
    <path
       id="path1304"
       d="m 95.545867,31.276527 c -1.725938,12.09531 14.357373,8.67655 10.423513,-0.20045 -1.43034,-1.1949 -7.184851,-3.65549 -10.423513,0.20045 z"
       style="display:inline;fill:none;stroke:#000000;stroke-width:0.5;stroke-linecap:butt;stroke-linejoin:miter;stroke-miterlimit:4;stroke-dasharray:none;stroke-opacity:1" />
    <ellipse
       ry="3.0669208"
       rx="2.8331034"
       cy="33.45924"
       cx="104.0565"
       id="path1306"
       style="display:inline;opacity:1;fill:#000000;fill-opacity:1;stroke:#000000;stroke-width:0.5;stroke-miterlimit:4;stroke-dasharray:none;stroke-opacity:1" />
    <path
       id="path1300-9"
       d="m 126.10716,35.638997 c 1.43202,-4.529 1.56697,-10.27801 10.94165,-8.1588 3.9817,0.9001 6.0087,1.91966 7.52633,-0.75896 -0.24337,1.65894 -0.52581,4.73732 -3.16742,5.37596 -4.38029,-7.62785 -14.32682,-1.85756 -15.30056,3.5418 z"
       style="display:inline;fill:#000000;stroke:#000000;stroke-width:0.5;stroke-linecap:butt;stroke-linejoin:miter;stroke-miterlimit:4;stroke-dasharray:none;stroke-opacity:1" />
    <path
       id="path1302-8"
       d="m 141.40772,32.097197 c -0.89578,7.90086 -8.0476,8.45768 -16.62874,7.3366 l 0.94362,-3.03584 c 3.09753,-8.57913 12.25436,-10.45182 15.68512,-4.30076 z"
       style="display:inline;fill:none;stroke:#000000;stroke-width:0.5;stroke-linecap:butt;stroke-linejoin:miter;stroke-miterlimit:4;stroke-dasharray:none;stroke-opacity:1" />
    <path
       id="path1304-2"
       d="m 139.95814,30.516027 c 1.6337,11.44891 -13.59008,8.21285 -9.86645,-0.18974 1.35389,-1.13104 6.80087,-3.46013 9.86645,0.18974 z"
       style="display:inline;fill:none;stroke:#000000;stroke-width:0.5;stroke-linecap:butt;stroke-linejoin:miter;stroke-miterlimit:4;stroke-dasharray:none;stroke-opacity:1" />
    <ellipse
       transform="scale(-1,1)"
       ry="2.903017"
       rx="2.6816952"
       cy="32.891155"
       cx="-132.01711"
       id="path1306-2"
       style="display:inline;opacity:1;fill:#000000;fill-opacity:1;stroke:#000000;stroke-width:0.5;stroke-miterlimit:4;stroke-dasharray:none;stroke-opacity:1" />
    <path
       id="path1114-3"
       d="m 114.95251,79.361417 c -4.81145,1.35211 -7.19747,7.31077 -10.46411,11.59691 l 7.30366,-4.99242 z"
       style="display:inline;fill:#000000;stroke:#000000;stroke-width:0.5;stroke-linecap:butt;stroke-linejoin:miter;stroke-miterlimit:4;stroke-dasharray:none;stroke-opacity:1" />
    <path
       id="path1355"
       d="m 96.949029,19.917577 c -4.962932,2.59891 -10.168384,4.22775 -15.635271,4.81085 1.404871,-1.28839 2.688703,-1.94951 2.678065,-5.87993"
       style="display:inline;fill:none;stroke:#000000;stroke-width:0.5;stroke-linecap:butt;stroke-linejoin:miter;stroke-miterlimit:4;stroke-dasharray:none;stroke-opacity:1" />
    <path
       id="path1357"
       d="m 133.03042,-5.0721249 c 0.7172,3.593904 0.92342,6.779027 -0.13364,8.953529 1.19308,7.0154129 4.46523,12.2716129 10.28988,15.3680029 4.32243,3.59042 4.73686,6.92032 3.74177,10.15624 2.97061,-4.79884 5.42957,-13.38706 -2.00452,-26.3260519 -3.33601,-9.668562 -8.65146,-15.8024061 -16.97162,-16.5707111 l 3.60814,7.2162771 z"
       style="display:inline;fill:#000000;stroke:#000000;stroke-width:0.5;stroke-linecap:butt;stroke-linejoin:miter;stroke-miterlimit:4;stroke-dasharray:none;stroke-opacity:1" />
    <path
       id="path1361"
       d="m 127.93082,18.212537 9.08716,-0.4009 c 2.05027,1.35682 4.3582,2.32714 5.7463,4.67721 l -0.40091,1.60362 c -1.87089,-2.03391 -3.74177,-2.86441 -5.61266,-3.87541 l -6.28083,0.93545 c -1.89269,-0.45682 -1.97626,-1.8182 -2.53906,-2.93997 z"
       style="display:inline;fill:#666666;fill-opacity:1;stroke:#000000;stroke-width:0.5;stroke-linecap:butt;stroke-linejoin:miter;stroke-miterlimit:4;stroke-dasharray:none;stroke-opacity:1" />
    <path
       id="path1361-8"
       d="m 108.56407,21.464267 -9.087161,-0.4009 c -2.05027,1.35682 -4.358201,2.32714 -5.746301,4.67721 l 0.40091,1.60362 c 1.87089,-2.03391 3.74177,-2.86441 5.61266,-3.87541 l 6.280832,0.93545 c 1.89269,-0.45682 1.97626,-1.8182 2.53906,-2.93997 z"
       style="display:inline;fill:#666666;fill-opacity:1;stroke:#000000;stroke-width:0.5;stroke-linecap:butt;stroke-linejoin:miter;stroke-miterlimit:4;stroke-dasharray:none;stroke-opacity:1" />
    <path
       id="path1085"
       d="m 67.194218,188.97882 c 3.472222,10.82043 9.821584,15.88658 16.252973,20.78868 12.324998,-8.88617 22.724189,-12.63685 33.639879,-17.76486 l -3.40178,-6.80358 c -10.49308,3.97391 -20.923522,8.10439 -30.427086,14.55209 L 71.162968,182.93121 Z"
       style="display:inline;fill:none;stroke:#000000;stroke-width:0.5;stroke-linecap:butt;stroke-linejoin:miter;stroke-miterlimit:4;stroke-dasharray:none;stroke-opacity:1" />
    <path
       id="path1087"
       d="m 71.162968,182.93121 c 6.80394,-7.82389 4.003474,-21.41042 0.944941,-35.15179 9.599734,-5.72389 16.282823,-15.01257 21.355648,-26.26935 0.82084,17.20557 12.364613,26.75189 30.805063,31.37202 -6.53944,12.06304 -11.06903,23.26471 -10.58333,32.31697 -12.98527,4.3338 -22.984708,9.21049 -30.427088,14.55209 z"
       style="display:inline;fill:none;stroke:#000000;stroke-width:0.5;stroke-linecap:butt;stroke-linejoin:miter;stroke-miterlimit:4;stroke-dasharray:none;stroke-opacity:1" />
    <path
       id="path1089"
       d="m 72.107835,147.7793 -6.696751,3.36776 -0.111104,-0.093 c -0.97622,9.24371 -11.09364,23.83924 -17.028935,35.87275 l -12.299507,32.87448 c 7.169046,0.0745 6.955676,3.18852 8.418607,5.61258 9.332682,-15.79467 17.848812,-28.32182 26.773045,-42.48269 0.945983,-1.21327 1.789327,-2.39094 2.54558,-3.53827 3.838019,-9.15733 0.853138,-20.46929 -1.600935,-31.61359 z"
       style="display:inline;fill:none;stroke:#000000;stroke-width:0.5;stroke-linecap:butt;stroke-linejoin:miter;stroke-miterlimit:4;stroke-dasharray:none;stroke-opacity:1" />
    <path
       id="path1091"
       d="m 35.971284,219.80114 -4.009044,10.95806 -3.608139,16.43704 -0.267269,13.49711 6.949009,14.69983 c 1.520301,-1.35184 1.579502,-3.28814 1.336347,-5.34538 l -2.53906,-12.29439 c 1.299204,-6.53516 3.843824,-10.89083 6.548104,-14.9671 0.409038,4.81086 0.571256,15.90256 6.681736,14.43256 -3.222487,-7.56325 -0.544064,-14.05362 -0.267269,-20.98065 l -3.201862,-8.67553 0.796438,-2.14889 c -1.587029,-2.23668 -0.26248,-5.34683 -8.418991,-5.61266 z"
       style="display:inline;fill:none;stroke:#000000;stroke-width:0.5;stroke-linecap:butt;stroke-linejoin:miter;stroke-miterlimit:4;stroke-dasharray:none;stroke-opacity:1" />
    <path
       id="path1096"
       d="m 36.372188,270.0478 v 0 c -1.444048,3.95693 -4.330377,-2.9615 -6.168689,-9.35445 -0.981055,-3.21238 -0.07102,-6.61556 0.823299,-13.63072"
       style="display:inline;fill:none;stroke:#000000;stroke-width:0.5;stroke-linecap:butt;stroke-linejoin:miter;stroke-miterlimit:4;stroke-dasharray:none;stroke-opacity:1" />
    <path
       id="path1102"
       d="m 40.381232,242.78631 -2.004523,-2.27179"
       style="display:inline;fill:none;stroke:#000000;stroke-width:0.5;stroke-linecap:butt;stroke-linejoin:miter;stroke-miterlimit:4;stroke-dasharray:none;stroke-opacity:1" />
    <path
       id="path1089-1"
       d="m 124.26862,152.88209 c -3.00342,5.3986 -2.90586,10.80549 4.36031,26.27619 6.04933,15.60698 13.75322,31.25867 19.89078,48.54742 1.89979,-2.09929 2.28712,-5.19676 9.33793,-3.89795 -3.30742,-16.398 -2.67108,-25.94494 -9.23871,-40.982 -2.85847,-10.08716 -5.28227,-19.16559 -6.66988,-26.49451 l -0.10439,0.14159 c -6.15743,-0.74872 -12.39423,-1.37906 -17.57619,-3.59099 z"
       style="display:inline;fill:none;stroke:#000000;stroke-width:0.5;stroke-linecap:butt;stroke-linejoin:miter;stroke-miterlimit:4;stroke-dasharray:none;stroke-opacity:1" />
    <path
       id="path1091-3"
       d="m 157.85739,223.80773 1.8379,11.52274 0.39589,16.82375 -2.32062,13.2988 -9.63369,13.09831 c -1.2335,-1.6178 -0.92105,-3.52965 -0.2887,-5.50233 l 4.84491,-11.58126 c -0.0246,-6.66298 -1.68859,-11.42514 -3.56282,-15.94358 -1.32213,4.64367 -3.60398,15.49931 -9.32021,12.88714 4.61032,-6.80678 3.22346,-13.68978 4.2774,-20.54176 l 4.80293,-7.90244 -0.37048,-2.26159 c 1.98573,-1.89163 1.28086,-5.19778 9.33749,-3.89778 z"
       style="display:inline;fill:none;stroke:#000000;stroke-width:0.5;stroke-linecap:butt;stroke-linejoin:miter;stroke-miterlimit:4;stroke-dasharray:none;stroke-opacity:1" />
    <path
       id="path1096-6"
       d="m 147.84817,273.049 v 0 c 0.66012,4.16015 4.81709,-2.07804 7.84485,-8.00103 1.57767,-2.96529 1.3357,-6.47972 1.80043,-13.53637"
       style="display:inline;fill:none;stroke:#000000;stroke-width:0.5;stroke-linecap:butt;stroke-linejoin:miter;stroke-miterlimit:4;stroke-dasharray:none;stroke-opacity:1" />
    <path
       id="path1102-7"
       d="m 149.13026,245.52416 2.40223,-1.84621"
       style="display:inline;fill:none;stroke:#000000;stroke-width:0.5;stroke-linecap:butt;stroke-linejoin:miter;stroke-miterlimit:4;stroke-dasharray:none;stroke-opacity:1" />
    <path
       id="path1378"
       d="m 133.03042,-5.0721249 c -2.58253,-1.207993 -3.3916,-5.6015521 -5.07813,-8.4189911 -11.58615,-12.646947 -42.135681,-2.806971 -44.883072,1.575588 C 70.98517,1.2894441 67.643824,13.188217 66.816242,27.205007 c -6.453644,13.70507 3.954756,22.01593 5.291667,24.19048 -4.578975,8.49377 0.792064,11.59796 4.346725,15.68601 -2.612408,6.14458 0.05252,10.10543 2.456845,14.17411 -2.135804,1.58702 -4.130276,3.45671 -2.078869,13.41815 -5.506095,4.59426 -3.366503,9.413393 -3.212798,14.174113 -2.245955,0.29381 -3.773197,2.30454 -2.83482,10.20536 l -1.13393,3.59077 c -6.806841,8.05605 -3.455237,11.27475 -3.401786,16.06399 1.352146,-1.10621 1.116939,-4.85801 1.511904,-7.55953 -0.657852,5.75146 1.722033,11.43541 9.07143,17.00893 -1.903814,-6.66277 1.295951,-17.64758 -3.779763,-22.86756 l 0.188989,-4.53571 c 4.149349,-5.3314 6.758355,-9.88994 5.480656,-13.79613 1.759924,-4.18552 9.123265,-2.48235 8.504462,-14.552083 8.295135,-3.9905 7.348575,-8.32329 6.236603,-12.66221 l 2.405642,-1.37938 0.807159,-12.22776 1.05833,2.11667 -0.51839,-6.50797 c -4.425299,-2.85596 -7.374985,-7.52807 -9.488069,-13.22984 -2.675951,1.47219 -5.609421,-0.40333 -8.819896,-5.87993 -0.712335,-5.95385 0.76268,-8.38893 4.14805,-7.75082 1.520767,2.54637 2.759911,6.00802 4.939117,6.41447 -1.181743,-3.7706 1.655067,-8.1489 0.534538,-13.36348 l 2.40543,-4.94448 6.013561,-3.0736 -5.34539,4.14268 c 6.861699,0.78345 19.406441,-6.83019 28.063301,-13.36348 -1.31653,2.03761 -2.36633,3.95853 -9.2208,8.41899 20.6315,-4.68441 24.64338,-13.6535629 22.58428,-24.1878919 z"
       style="display:inline;fill:#000000;stroke:#000000;stroke-width:0.5;stroke-linecap:butt;stroke-linejoin:miter;stroke-miterlimit:4;stroke-dasharray:none;stroke-opacity:1" />
    <path
       id="path1380"
       d="m 142.25121,47.847237 c 2.8697,5.81717 5.05071,11.4681 0.72723,15.54899 0.40614,3.15147 2.09081,5.66368 -0.28348,10.20536 -1.11151,1.61226 -2.97095,1.97798 -4.8192,2.36235 -0.87681,3.03932 1.83081,6.86691 -10.29985,9.16592 -0.95152,6.16656 -4.41342,5.63876 -6.70907,8.22098 1.15798,3.62191 0.60381,6.708783 -2.26786,9.071433 2.12671,2.2509 2.99068,5.09603 0.85045,9.35491 l 1.5119,3.2128 c 6.32765,2.52134 7.50444,7.28219 8.12649,12.28423 l -4.63021,-7.9375 c 3.98362,5.84577 4.12966,11.92179 -4.44122,18.52083 3.37176,-4.42261 0.93486,-8.25046 0.94494,-12.28422 l -0.28348,6.52008 c -1.20693,-4.66861 -4.40493,-8.86874 -1.70089,-14.45758 l -1.22843,-3.59078 c -3.12328,-2.11451 -4.8679,-5.26302 -3.96875,-10.39435 l -3.02381,-7.276043 c 0.49221,-2.34331 1.40463,-4.61658 3.40179,-6.70907 -0.34227,-6.01213 -1.07993,-12.29695 5.66964,-13.41816 l 0.47247,-3.30729 c 10.68132,-3.40652 18.56921,-16.47996 21.95134,-25.09289 z"
       style="display:inline;fill:#000000;stroke:#000000;stroke-width:0.5;stroke-linecap:butt;stroke-linejoin:miter;stroke-miterlimit:4;stroke-dasharray:none;stroke-opacity:1" />
    <path
       id="path1359"
       d="m 133.03042,-5.0721249 c -4.74613,-1.501285 -17.922,-14.9389491 -42.896764,6.815373 C 84.693082,9.0885371 83.063669,15.344927 79.84378,22.055737 l 1.603616,-1.46999 c -1.849744,2.5251 -3.49377,5.56449 -6.013564,6.41447 5.167212,1.09972 10.334424,-2.57039 15.501636,-4.00904 l 6.013561,-3.0736 -5.34539,4.14268 c 10.725041,-0.34268 18.958381,-8.16045 28.063301,-13.36348 -2.17964,3.92379 -5.63898,6.24794 -9.2208,8.41899 13.96713,-1.966 22.44459,-10.8647399 22.45064,-15.2343629 1.15229,-1.87677 1.49377,-4.56434296 0.13364,-8.953529 z"
       style="display:inline;fill:#000000;stroke:#000000;stroke-width:0.5;stroke-linecap:butt;stroke-linejoin:miter;stroke-miterlimit:4;stroke-dasharray:none;stroke-opacity:1" />
    <path
       id="path1128"
       d="m 72.107872,147.77942 -25.32441,12.47321 20.03274,-63.122065 30.0491,-27.21429 c 4.705198,6.53029 4.568698,14.02892 4.346718,21.54464 11.1501,-18.48422 14.74319,-17.53622 19.08785,-18.52083 10.56479,5.47046 20.41636,5.09333 32.77054,14.58988 9.18824,20.794675 14.52376,46.212645 21.46905,69.698855 -25.46968,1.03895 -80.206868,0.42997 -81.075938,-35.71875 -5.29373,9.40817 -9.3209,19.26869 -21.35565,26.26935 z"
       style="display:inline;fill:none;stroke:#000000;stroke-width:0.5;stroke-linecap:butt;stroke-linejoin:miter;stroke-miterlimit:4;stroke-dasharray:none;stroke-opacity:1" />
    <path
       id="path1083"
       d="m 26.183801,299.04549 c 5.56432,-30.63005 14.66765,-73.0621 41.01041,-110.06667 2.9037,8.88486 8.82543,15.42237 16.25298,20.78868 9.93454,-7.20037 21.726649,-12.54316 33.639869,-17.76486 43.17971,59.57418 47.87454,81.52418 64.63393,106.92945 z"
       style="display:inline;fill:none;stroke:#000000;stroke-width:0.5;stroke-linecap:butt;stroke-linejoin:miter;stroke-miterlimit:4;stroke-dasharray:none;stroke-opacity:1" />
  </g>
</svg>
