<?xml version="1.0" encoding="UTF-8" standalone="no"?>
<svg
   xmlns:dc="http://purl.org/dc/elements/1.1/"
   xmlns:cc="http://creativecommons.org/ns#"
   xmlns:rdf="http://www.w3.org/1999/02/22-rdf-syntax-ns#"
   xmlns:svg="http://www.w3.org/2000/svg"
   xmlns="http://www.w3.org/2000/svg"
   id="svg13501"
   version="1.1"
   viewBox="0 0 206.72293 329.741"
   height="329.741mm"
   width="206.72293mm">
  <defs
     id="defs13495" />
  <metadata
     id="metadata13498">
    <rdf:RDF>
      <cc:Work
         rdf:about="">
        <dc:format>image/svg+xml</dc:format>
        <dc:type
           rdf:resource="http://purl.org/dc/dcmitype/StillImage" />
        <dc:title></dc:title>
      </cc:Work>
    </rdf:RDF>
  </metadata>
  <g
     transform="translate(11.848376,-20.342329)"
     id="layer1">
    <path
       transform="matrix(0.570831,0.10839707,-0.10839707,0.570831,65.420311,17.357846)"
       d="m -40.270684,63.56042 -3.896482,-2.766612 -3.62547,3.113307 1.427125,-4.560705 -4.081263,-2.485962 4.778494,-0.05206 1.103111,-4.649717 1.526147,4.528531 4.763023,-0.38772 -3.835284,2.850844 z"
       id="path942-4-1"
       style="display:inline;opacity:1;fill:#000000;fill-opacity:1;stroke:#000000;stroke-width:1;stroke-miterlimit:4;stroke-dasharray:none;stroke-opacity:1" />
    <path
       transform="matrix(0.570831,0.10839707,-0.10839707,0.570831,56.104281,24.753003)"
       d="m -40.270684,63.56042 -3.896482,-2.766612 -3.62547,3.113307 1.427125,-4.560705 -4.081263,-2.485962 4.778494,-0.05206 1.103111,-4.649717 1.526147,4.528531 4.763023,-0.38772 -3.835284,2.850844 z"
       id="path942-4-1-0"
       style="display:inline;opacity:1;fill:#000000;fill-opacity:1;stroke:#000000;stroke-width:1;stroke-miterlimit:4;stroke-dasharray:none;stroke-opacity:1" />
    <path
       transform="matrix(0.570831,0.10839707,-0.10839707,0.570831,48.695939,35.865556)"
       d="m -40.270684,63.56042 -3.896482,-2.766612 -3.62547,3.113307 1.427125,-4.560705 -4.081263,-2.485962 4.778494,-0.05206 1.103111,-4.649717 1.526147,4.528531 4.763023,-0.38772 -3.835284,2.850844 z"
       id="path942-4-1-1"
       style="display:inline;opacity:1;fill:#000000;fill-opacity:1;stroke:#000000;stroke-width:1;stroke-miterlimit:4;stroke-dasharray:none;stroke-opacity:1" />
    <path
       transform="matrix(0.570831,0.10839707,-0.10839707,0.570831,44.140269,48.245856)"
       d="m -40.270684,63.56042 -3.896482,-2.766612 -3.62547,3.113307 1.427125,-4.560705 -4.081263,-2.485962 4.778494,-0.05206 1.103111,-4.649717 1.526147,4.528531 4.763023,-0.38772 -3.835284,2.850844 z"
       id="path942-4-1-7"
       style="display:inline;opacity:1;fill:#000000;fill-opacity:1;stroke:#000000;stroke-width:1;stroke-miterlimit:4;stroke-dasharray:none;stroke-opacity:1" />
    <path
       transform="matrix(0.570831,0.10839707,-0.10839707,0.570831,42.798548,61.603986)"
       d="m -40.270684,63.56042 -3.896482,-2.766612 -3.62547,3.113307 1.427125,-4.560705 -4.081263,-2.485962 4.778494,-0.05206 1.103111,-4.649717 1.526147,4.528531 4.763023,-0.38772 -3.835284,2.850844 z"
       id="path942-4-1-3"
       style="display:inline;opacity:1;fill:#000000;fill-opacity:1;stroke:#000000;stroke-width:1;stroke-miterlimit:4;stroke-dasharray:none;stroke-opacity:1" />
    <path
       transform="matrix(0.570831,0.10839707,-0.10839707,0.570831,43.333089,74.165656)"
       d="m -40.270684,63.56042 -3.896482,-2.766612 -3.62547,3.113307 1.427125,-4.560705 -4.081263,-2.485962 4.778494,-0.05206 1.103111,-4.649717 1.526147,4.528531 4.763023,-0.38772 -3.835284,2.850844 z"
       id="path942-4-1-8"
       style="display:inline;opacity:1;fill:#000000;fill-opacity:1;stroke:#000000;stroke-width:1;stroke-miterlimit:4;stroke-dasharray:none;stroke-opacity:1" />
    <path
       transform="matrix(0.570831,0.10839707,-0.10839707,0.570831,46.136098,84.314656)"
       d="m -40.270684,63.56042 -3.896482,-2.766612 -3.62547,3.113307 1.427125,-4.560705 -4.081263,-2.485962 4.778494,-0.05206 1.103111,-4.649717 1.526147,4.528531 4.763023,-0.38772 -3.835284,2.850844 z"
       id="path942-4-1-16"
       style="display:inline;opacity:1;fill:#000000;fill-opacity:1;stroke:#000000;stroke-width:1;stroke-miterlimit:4;stroke-dasharray:none;stroke-opacity:1" />
    <path
       transform="matrix(0.570831,0.10839707,-0.10839707,0.570831,50.160333,94.004786)"
       d="m -40.270684,63.56042 -3.896482,-2.766612 -3.62547,3.113307 1.427125,-4.560705 -4.081263,-2.485962 4.778494,-0.05206 1.103111,-4.649717 1.526147,4.528531 4.763023,-0.38772 -3.835284,2.850844 z"
       id="path942-4-1-6"
       style="display:inline;opacity:1;fill:#000000;fill-opacity:1;stroke:#000000;stroke-width:1;stroke-miterlimit:4;stroke-dasharray:none;stroke-opacity:1" />
    <path
       transform="matrix(0.570831,0.10839707,-0.10839707,0.570831,56.707311,103.03613)"
       d="m -40.270684,63.56042 -3.896482,-2.766612 -3.62547,3.113307 1.427125,-4.560705 -4.081263,-2.485962 4.778494,-0.05206 1.103111,-4.649717 1.526147,4.528531 4.763023,-0.38772 -3.835284,2.850844 z"
       id="path942-4-1-66"
       style="display:inline;opacity:1;fill:#000000;fill-opacity:1;stroke:#000000;stroke-width:1;stroke-miterlimit:4;stroke-dasharray:none;stroke-opacity:1" />
    <path
       transform="matrix(0.570831,0.10839707,-0.10839707,0.570831,64.748641,110.98051)"
       d="m -40.270684,63.56042 -3.896482,-2.766612 -3.62547,3.113307 1.427125,-4.560705 -4.081263,-2.485962 4.778494,-0.05206 1.103111,-4.649717 1.526147,4.528531 4.763023,-0.38772 -3.835284,2.850844 z"
       id="path942-4-1-68"
       style="display:inline;opacity:1;fill:#000000;fill-opacity:1;stroke:#000000;stroke-width:1;stroke-miterlimit:4;stroke-dasharray:none;stroke-opacity:1" />
    <path
       transform="matrix(-0.570831,0.10839707,0.10839707,0.570831,117.60569,17.357846)"
       d="m -40.270684,63.56042 -3.896482,-2.766612 -3.62547,3.113307 1.427125,-4.560705 -4.081263,-2.485962 4.778494,-0.05206 1.103111,-4.649717 1.526147,4.528531 4.763023,-0.38772 -3.835284,2.850844 z"
       id="path942-4-1-5"
       style="display:inline;opacity:1;fill:#000000;fill-opacity:1;stroke:#000000;stroke-width:1;stroke-miterlimit:4;stroke-dasharray:none;stroke-opacity:1" />
    <path
       transform="matrix(-0.570831,0.10839707,0.10839707,0.570831,126.92173,24.753003)"
       d="m -40.270684,63.56042 -3.896482,-2.766612 -3.62547,3.113307 1.427125,-4.560705 -4.081263,-2.485962 4.778494,-0.05206 1.103111,-4.649717 1.526147,4.528531 4.763023,-0.38772 -3.835284,2.850844 z"
       id="path942-4-1-0-2"
       style="display:inline;opacity:1;fill:#000000;fill-opacity:1;stroke:#000000;stroke-width:1;stroke-miterlimit:4;stroke-dasharray:none;stroke-opacity:1" />
    <path
       transform="matrix(-0.570831,0.10839707,0.10839707,0.570831,134.33006,35.865556)"
       d="m -40.270684,63.56042 -3.896482,-2.766612 -3.62547,3.113307 1.427125,-4.560705 -4.081263,-2.485962 4.778494,-0.05206 1.103111,-4.649717 1.526147,4.528531 4.763023,-0.38772 -3.835284,2.850844 z"
       id="path942-4-1-1-3"
       style="display:inline;opacity:1;fill:#000000;fill-opacity:1;stroke:#000000;stroke-width:1;stroke-miterlimit:4;stroke-dasharray:none;stroke-opacity:1" />
    <path
       transform="matrix(-0.570831,0.10839707,0.10839707,0.570831,138.88573,48.245856)"
       d="m -40.270684,63.56042 -3.896482,-2.766612 -3.62547,3.113307 1.427125,-4.560705 -4.081263,-2.485962 4.778494,-0.05206 1.103111,-4.649717 1.526147,4.528531 4.763023,-0.38772 -3.835284,2.850844 z"
       id="path942-4-1-7-6"
       style="display:inline;opacity:1;fill:#000000;fill-opacity:1;stroke:#000000;stroke-width:1;stroke-miterlimit:4;stroke-dasharray:none;stroke-opacity:1" />
    <path
       transform="matrix(-0.570831,0.10839707,0.10839707,0.570831,140.22745,61.603986)"
       d="m -40.270684,63.56042 -3.896482,-2.766612 -3.62547,3.113307 1.427125,-4.560705 -4.081263,-2.485962 4.778494,-0.05206 1.103111,-4.649717 1.526147,4.528531 4.763023,-0.38772 -3.835284,2.850844 z"
       id="path942-4-1-3-4"
       style="display:inline;opacity:1;fill:#000000;fill-opacity:1;stroke:#000000;stroke-width:1;stroke-miterlimit:4;stroke-dasharray:none;stroke-opacity:1" />
    <path
       transform="matrix(-0.570831,0.10839707,0.10839707,0.570831,139.69292,74.165656)"
       d="m -40.270684,63.56042 -3.896482,-2.766612 -3.62547,3.113307 1.427125,-4.560705 -4.081263,-2.485962 4.778494,-0.05206 1.103111,-4.649717 1.526147,4.528531 4.763023,-0.38772 -3.835284,2.850844 z"
       id="path942-4-1-8-7"
       style="display:inline;opacity:1;fill:#000000;fill-opacity:1;stroke:#000000;stroke-width:1;stroke-miterlimit:4;stroke-dasharray:none;stroke-opacity:1" />
    <path
       transform="matrix(-0.570831,0.10839707,0.10839707,0.570831,136.8899,84.314656)"
       d="m -40.270684,63.56042 -3.896482,-2.766612 -3.62547,3.113307 1.427125,-4.560705 -4.081263,-2.485962 4.778494,-0.05206 1.103111,-4.649717 1.526147,4.528531 4.763023,-0.38772 -3.835284,2.850844 z"
       id="path942-4-1-16-5"
       style="display:inline;opacity:1;fill:#000000;fill-opacity:1;stroke:#000000;stroke-width:1;stroke-miterlimit:4;stroke-dasharray:none;stroke-opacity:1" />
    <path
       transform="matrix(-0.570831,0.10839707,0.10839707,0.570831,132.86567,94.004786)"
       d="m -40.270684,63.56042 -3.896482,-2.766612 -3.62547,3.113307 1.427125,-4.560705 -4.081263,-2.485962 4.778494,-0.05206 1.103111,-4.649717 1.526147,4.528531 4.763023,-0.38772 -3.835284,2.850844 z"
       id="path942-4-1-6-5"
       style="display:inline;opacity:1;fill:#000000;fill-opacity:1;stroke:#000000;stroke-width:1;stroke-miterlimit:4;stroke-dasharray:none;stroke-opacity:1" />
    <path
       transform="matrix(-0.570831,0.10839707,0.10839707,0.570831,126.31869,103.03613)"
       d="m -40.270684,63.56042 -3.896482,-2.766612 -3.62547,3.113307 1.427125,-4.560705 -4.081263,-2.485962 4.778494,-0.05206 1.103111,-4.649717 1.526147,4.528531 4.763023,-0.38772 -3.835284,2.850844 z"
       id="path942-4-1-66-4"
       style="display:inline;opacity:1;fill:#000000;fill-opacity:1;stroke:#000000;stroke-width:1;stroke-miterlimit:4;stroke-dasharray:none;stroke-opacity:1" />
    <path
       transform="matrix(-0.570831,0.10839707,0.10839707,0.570831,118.27737,110.98051)"
       d="m -40.270684,63.56042 -3.896482,-2.766612 -3.62547,3.113307 1.427125,-4.560705 -4.081263,-2.485962 4.778494,-0.05206 1.103111,-4.649717 1.526147,4.528531 4.763023,-0.38772 -3.835284,2.850844 z"
       id="path942-4-1-68-4"
       style="display:inline;opacity:1;fill:#000000;fill-opacity:1;stroke:#000000;stroke-width:1;stroke-miterlimit:4;stroke-dasharray:none;stroke-opacity:1" />
    <path
       id="path2459-8"
       d="m 102.4146,64.186536 c 20.15195,0.41855 33.56049,-13.25621 35.41321,-23.786974 0.46024,-6.09632 -0.37122,-12.74622 -2.40542,-19.911589 15.6695,1.139168 49.1959,21.680648 49.31135,35.947753 l 2.13816,0.40092 -1.33636,2.13815 2.93999,0.53454 c 4.84299,17.37429 9.7802,34.71532 2.80635,56.260234 l -1.60363,1.46997 0.80181,1.60362 c -11.11654,20.26295 -25.14082,37.98166 -53.18679,43.43131 2.13832,-3.60798 7.95096,-10.62427 3.0736,-16.1698 -4.46905,-21.1148 -18.70565,-24.64803 -33.67596,-26.86059 -7.321899,0.40401 -3.27206,-4.34292 -4.00904,-6.41448 z"
       style="display:inline;fill:none;stroke:#000000;stroke-width:0.26458332px;stroke-linecap:butt;stroke-linejoin:miter;stroke-opacity:1" />
    <path
       id="path2461-3"
       d="m 102.4146,64.186536 0.002,4.10017 c 20.44,2.89139 32.45671,-9.09254 41.10481,-27.025293 l -5.69352,-0.861851 c -3.14485,11.140784 -13.24352,23.447994 -35.41319,23.786974 z"
       style="display:inline;fill:#000000;stroke:#000000;stroke-width:0.26458332px;stroke-linecap:butt;stroke-linejoin:miter;stroke-opacity:1" />
    <path
       id="path2463-1"
       d="m 102.68187,112.8296 c 15.81512,3.67906 32.82946,2.32141 42.63486,31.24135 l -4.94986,2.03372 c -3.3142,-15.14484 -12.24742,-24.54462 -33.67596,-26.86059 -5.8003,0.17648 -4.83561,-3.1548 -4.00904,-6.41448 z"
       style="display:inline;fill:#000000;stroke:#000000;stroke-width:0.26458332px;stroke-linecap:butt;stroke-linejoin:miter;stroke-opacity:1" />
    <path
       id="path2465-7"
       d="m 137.82779,40.399562 -0.16508,-3.3904 c 56.62839,8.801774 52.25898,100.365408 4.44122,112.164458 l -1.73706,-3.06895 4.94986,-2.03372 -3.15611,-8.40997 c 36.52877,-19.33973 29.90488,-77.694824 -2.23005,-87.879484 l 3.59074,-6.520083 z"
       style="display:inline;fill:none;stroke:#000000;stroke-width:0.26458332px;stroke-linecap:butt;stroke-linejoin:miter;stroke-opacity:1" />
    <path
       id="path2459"
       d="M 80.611401,64.186536 C 60.459461,64.605086 47.050916,50.930326 45.198195,40.399562 44.737955,34.303242 45.569416,27.653342 47.60362,20.487973 31.934119,21.627141 -1.5921557,42.168621 -1.7076097,56.435726 l -2.138155,0.40092 1.336346,2.13815 -2.939964,0.53454 c -4.8429633,17.37429 -9.7801403,34.71532 -2.80633,56.260234 l 1.603619,1.46997 -0.801809,1.60362 c 11.116475,20.26295 25.1406717,37.98165 53.1866347,43.4313 -2.138312,-3.60798 -7.950956,-10.62427 -3.073598,-16.1698 4.469056,-21.1148 18.705657,-24.64802 33.675957,-26.86058 7.3219,0.40401 3.27206,-4.34292 4.00904,-6.41448 z"
       style="display:inline;fill:none;stroke:#000000;stroke-width:0.26458332px;stroke-linecap:butt;stroke-linejoin:miter;stroke-opacity:1" />
    <path
       id="path2463"
       d="m 80.344131,112.8296 c -15.81512,3.67906 -32.829456,2.32141 -42.634851,31.24134 l 4.949854,2.03372 c 3.314203,-15.14484 12.247417,-24.54462 33.675957,-26.86058 5.8003,0.17648 4.83562,-3.1548 4.00904,-6.41448 z"
       style="display:inline;fill:#000000;stroke:#000000;stroke-width:0.26458332px;stroke-linecap:butt;stroke-linejoin:miter;stroke-opacity:1" />
    <path
       id="path2270"
       d="m 91.435821,41.936373 -8.68626,11.292123 -4.19338,0.20582 -0.48384,3.3355 -1.00226,0.40089 -0.0668,6.94902 28.263749,0.0668 1.80407,-2.67271 -0.0668,-3.80857 -2.33861,-0.60137 -0.20045,-3.87541 -2.80633,-0.13364 z"
       style="display:inline;fill:none;stroke:#000000;stroke-width:0.26499999;stroke-linecap:butt;stroke-linejoin:miter;stroke-miterlimit:4;stroke-dasharray:none;stroke-opacity:1" />
    <path
       id="path2272"
       d="m 91.435821,41.936373 -8.68626,11.292123 18.909319,-0.13367 z"
       style="display:inline;fill:none;stroke:#000000;stroke-width:0.26458332px;stroke-linecap:butt;stroke-linejoin:miter;stroke-opacity:1" />
    <path
       id="path2274"
       d="m 101.65888,53.094826 2.80633,0.13364 0.20045,3.87541 -26.593319,-0.33406 0.48384,-3.3355 4.19338,-0.20582 z"
       style="display:inline;fill:none;stroke:#000000;stroke-width:0.26458332px;stroke-linecap:butt;stroke-linejoin:miter;stroke-opacity:1" />
    <path
       id="path2276"
       d="m 77.070081,57.170706 -0.0668,6.94902 28.263749,0.0668 1.80406,-2.67272 -0.0668,-3.80857 -2.3386,-0.60137 -26.593319,-0.33406 z"
       style="display:inline;fill:none;stroke:#000000;stroke-width:0.26458332px;stroke-linecap:butt;stroke-linejoin:miter;stroke-opacity:1" />
    <ellipse
       ry="1.7038432"
       rx="1.9377041"
       cy="60.478207"
       cx="91.703087"
       id="path2278"
       style="display:inline;opacity:1;fill:#ffffff;fill-opacity:1;stroke:#000000;stroke-width:0.26499999;stroke-miterlimit:4;stroke-dasharray:none;stroke-opacity:1" />
    <ellipse
       ry="1.7038432"
       rx="1.9377041"
       cy="60.444759"
       cx="101.92616"
       id="path2278-9"
       style="display:inline;opacity:1;fill:#ffffff;fill-opacity:1;stroke:#000000;stroke-width:0.26499999;stroke-miterlimit:4;stroke-dasharray:none;stroke-opacity:1" />
    <ellipse
       ry="1.7038432"
       rx="1.9377041"
       cy="60.311123"
       cx="81.413223"
       id="path2278-7"
       style="display:inline;opacity:1;fill:#ffffff;fill-opacity:1;stroke:#000000;stroke-width:0.26499999;stroke-miterlimit:4;stroke-dasharray:none;stroke-opacity:1" />
    <path
       id="path2301"
       d="m 91.435821,41.936373 -1.20271,14.833443 2.06596,-10e-6 z"
       style="display:inline;fill:#000000;stroke:#000000;stroke-width:0.26458332px;stroke-linecap:butt;stroke-linejoin:miter;stroke-opacity:1" />
    <path
       id="path2303"
       d="m 80.611401,64.186546 -0.26727,48.643054 22.856919,0.26728 0.11752,-48.653804 z"
       style="display:inline;fill:none;stroke:#000000;stroke-width:0.26458332px;stroke-linecap:butt;stroke-linejoin:miter;stroke-opacity:1" />
    <path
       id="path2330-1"
       d="m 79.883841,122.13213 c 4.32709,2.23545 3.24981,11.33287 0.31885,13.39191 l -1.59427,-0.74399 h -1.38171 l 0.10629,-11.90391 z"
       style="display:inline;fill:none;stroke:#000000;stroke-width:0.21043363px;stroke-linecap:butt;stroke-linejoin:miter;stroke-opacity:1" />
    <path
       id="path2332-1"
       d="m 77.333001,122.87614 -0.10629,11.90391 h 1.38171 l 0.0128,-12.22705 z"
       style="display:inline;fill:#ffcc00;stroke:#000000;stroke-width:0.21043363px;stroke-linecap:butt;stroke-linejoin:miter;stroke-opacity:1" />
    <path
       id="path2334-2"
       d="m 78.621241,122.55299 c 0,0 0.79057,-0.35956 0.75942,0.0164 -0.25716,3.1035 0.0275,9.89972 -0.0197,12.50379 l -0.75254,-0.29308 z"
       style="display:inline;fill:#000000;stroke:#000000;stroke-width:0.21043363px;stroke-linecap:butt;stroke-linejoin:miter;stroke-opacity:1" />
    <path
       id="path2330-6-9"
       d="m 105.51672,122.25238 c -4.3271,2.23545 -3.24981,11.33286 -0.31886,13.39191 l 1.59428,-0.74399 h 1.38171 l -0.10629,-11.90392 z"
       style="display:inline;fill:none;stroke:#000000;stroke-width:0.21043363px;stroke-linecap:butt;stroke-linejoin:miter;stroke-opacity:1" />
    <path
       id="path2332-2-7"
       d="m 108.06756,122.99638 0.10629,11.90392 h -1.38171 l -0.0128,-12.22705 z"
       style="display:inline;fill:#ffcc00;stroke:#000000;stroke-width:0.21043363px;stroke-linecap:butt;stroke-linejoin:miter;stroke-opacity:1" />
    <path
       id="path2334-8-0"
       d="m 106.77932,122.67324 c 0,0 -0.79057,-0.35957 -0.75942,0.0164 0.25716,3.10351 -0.0275,9.89973 0.0197,12.50378 l 0.75255,-0.29307 z"
       style="display:inline;fill:#000000;stroke:#000000;stroke-width:0.21043363px;stroke-linecap:butt;stroke-linejoin:miter;stroke-opacity:1" />
    <path
       id="path2307-6-9"
       d="m 82.774501,137.33848 -3.08226,0.1063 c -1.34972,2.12816 -1.25494,4.36743 0,6.69596 h 25.508409 c 1.38867,-3.10606 0.65093,-4.85892 -0.11484,-6.59396 z"
       style="display:inline;fill:#000000;stroke:#000000;stroke-width:0.21043363px;stroke-linecap:butt;stroke-linejoin:miter;stroke-opacity:1" />
    <ellipse
       ry="1.3551344"
       rx="1.541133"
       cy="140.83307"
       cx="92.135994"
       id="path2278-0-9-1"
       style="display:inline;opacity:1;fill:#ffffff;fill-opacity:1;stroke:#000000;stroke-width:0.21076503;stroke-miterlimit:4;stroke-dasharray:none;stroke-opacity:1" />
    <ellipse
       ry="1.3551344"
       rx="1.541133"
       cy="140.80646"
       cx="100.26679"
       id="path2278-9-3-9-9"
       style="display:inline;opacity:1;fill:#ffffff;fill-opacity:1;stroke:#000000;stroke-width:0.21076503;stroke-miterlimit:4;stroke-dasharray:none;stroke-opacity:1" />
    <ellipse
       ry="1.3551344"
       rx="1.541133"
       cy="140.70016"
       cx="83.952049"
       id="path2278-7-9-9-3"
       style="display:inline;opacity:1;fill:#ffffff;fill-opacity:1;stroke:#000000;stroke-width:0.21076503;stroke-miterlimit:4;stroke-dasharray:none;stroke-opacity:1" />
    <path
       id="path2307-2-1"
       d="m 82.659671,137.29577 -3.08226,0.1063 v 6.69596 h 25.508409 l -0.11484,-6.59396 z"
       style="display:inline;fill:none;stroke:#000000;stroke-width:0.21043363px;stroke-linecap:butt;stroke-linejoin:miter;stroke-opacity:1" />
    <path
       id="path2413-6"
       d="m 79.779311,119.96516 0.10453,2.16697 c 5.11636,3.58743 2.03519,12.22629 0.31885,13.39191 l -0.0896,1.92073 24.972709,0.102 0.11205,-1.90249 c -1.86009,-0.2657 -4.93899,-10.60498 0.31886,-13.3919 l -0.229,-2.28722 z"
       style="display:inline;fill:none;stroke:#000000;stroke-width:0.21043363px;stroke-linecap:butt;stroke-linejoin:miter;stroke-opacity:1" />
    <path
       id="path5949-5-6"
       d="m 96.222501,122.78559 -2.04964,-0.68997 -2.33864,4.28894 1.45197,-0.06 -2.83474,4.16768 1.22467,-0.18225 -3.07839,4.24554 5.70157,-5.94746 -1.31902,0.22022 3.02186,-4.05896 -1.37159,0.087 z"
       style="display:inline;fill:#ffcc00;stroke:#000000;stroke-width:0.12022667;stroke-linecap:butt;stroke-linejoin:miter;stroke-miterlimit:4;stroke-dasharray:none;stroke-opacity:1" />
    <circle
       transform="rotate(18.604776)"
       r="7.5925345"
       cy="92.400154"
       cx="128.48361"
       id="path6025-6-2"
       style="display:inline;opacity:1;fill:none;fill-opacity:1;stroke:#000000;stroke-width:0.21076502;stroke-miterlimit:4;stroke-dasharray:none;stroke-opacity:1" />
    <path
       id="path5949-0-5-5"
       d="m 95.746651,122.61993 -2.31338,-0.77874 -2.60214,4.72956 1.63476,-0.0557 -3.16173,4.59172 1.37788,-0.19267 -2.08431,3.6414 4.93526,-5.5097 -1.39313,0.23803 3.37324,-4.47 -1.54404,0.0862 z"
       style="display:inline;fill:#000000;stroke:#000000;stroke-width:0.13422288;stroke-linecap:butt;stroke-linejoin:miter;stroke-miterlimit:4;stroke-dasharray:none;stroke-opacity:1" />
    <path
       id="path2307-6-9-0"
       d="m 82.880511,112.73867 -3.08227,0.1063 c -1.34972,2.12816 -1.25494,4.36743 0,6.69596 h 25.508409 c 1.38868,-3.10606 0.65093,-4.85892 -0.11483,-6.59396 z"
       style="display:inline;fill:#000000;stroke:#000000;stroke-width:0.21043363px;stroke-linecap:butt;stroke-linejoin:miter;stroke-opacity:1" />
    <path
       id="path2307-2-1-4"
       d="m 82.765671,112.69596 -3.08226,0.1063 v 6.69596 h 25.508409 l -0.11483,-6.59396 z"
       style="display:inline;fill:#ffffff;stroke:#000000;stroke-width:0.21043363px;stroke-linecap:butt;stroke-linejoin:miter;stroke-opacity:1" />
    <ellipse
       ry="1.3551344"
       rx="1.541133"
       cy="116.23324"
       cx="92.241997"
       id="path2278-0-9-1-0"
       style="display:inline;opacity:1;fill:#ffffff;fill-opacity:1;stroke:#000000;stroke-width:0.21076503;stroke-miterlimit:4;stroke-dasharray:none;stroke-opacity:1" />
    <ellipse
       ry="1.3551344"
       rx="1.541133"
       cy="116.20663"
       cx="100.3728"
       id="path2278-9-3-9-9-7"
       style="display:inline;opacity:1;fill:#ffffff;fill-opacity:1;stroke:#000000;stroke-width:0.21076503;stroke-miterlimit:4;stroke-dasharray:none;stroke-opacity:1" />
    <ellipse
       ry="1.3551344"
       rx="1.541133"
       cy="116.10033"
       cx="84.058052"
       id="path2278-7-9-9-3-7"
       style="display:inline;opacity:1;fill:#ffffff;fill-opacity:1;stroke:#000000;stroke-width:0.21076503;stroke-miterlimit:4;stroke-dasharray:none;stroke-opacity:1" />
    <path
       id="path2330-1-1"
       d="m 79.681931,146.265 c 4.3271,2.23545 3.24982,11.33287 0.31886,13.39191 l -1.59428,-0.74399 h -1.3817 l 0.10628,-11.90391 z"
       style="display:inline;fill:none;stroke:#000000;stroke-width:0.21043363px;stroke-linecap:butt;stroke-linejoin:miter;stroke-opacity:1" />
    <path
       id="path2332-1-5"
       d="m 77.131091,147.00901 -0.10628,11.90391 h 1.3817 l 0.0128,-12.22705 z"
       style="display:inline;fill:#ffcc00;stroke:#000000;stroke-width:0.21043363px;stroke-linecap:butt;stroke-linejoin:miter;stroke-opacity:1" />
    <path
       id="path2334-2-5"
       d="m 78.419331,146.68586 c 0,0 0.79057,-0.35956 0.75942,0.0164 -0.25716,3.10351 0.0275,9.89973 -0.0197,12.50378 l -0.75254,-0.29306 z"
       style="display:inline;fill:#000000;stroke:#000000;stroke-width:0.21043363px;stroke-linecap:butt;stroke-linejoin:miter;stroke-opacity:1" />
    <path
       id="path2330-6-9-7"
       d="m 105.31482,146.38525 c -4.3271,2.23545 -3.24981,11.33286 -0.31886,13.39191 l 1.59428,-0.74399 h 1.3817 l -0.10628,-11.90392 z"
       style="display:inline;fill:none;stroke:#000000;stroke-width:0.21043363px;stroke-linecap:butt;stroke-linejoin:miter;stroke-opacity:1" />
    <path
       id="path2332-2-7-9"
       d="m 107.86566,147.12925 0.10628,11.90392 h -1.3817 l -0.0128,-12.22705 z"
       style="display:inline;fill:#ffcc00;stroke:#000000;stroke-width:0.21043363px;stroke-linecap:butt;stroke-linejoin:miter;stroke-opacity:1" />
    <path
       id="path2334-8-0-3"
       d="m 106.57742,146.80611 c 0,0 -0.79057,-0.35957 -0.75942,0.0164 0.25716,3.1035 -0.0275,9.89973 0.0197,12.50378 l 0.75254,-0.29306 z"
       style="display:inline;fill:#000000;stroke:#000000;stroke-width:0.21043363px;stroke-linecap:butt;stroke-linejoin:miter;stroke-opacity:1" />
    <path
       id="path2307-6-9-1"
       d="m 82.572601,161.47135 -3.08227,0.1063 c -1.34972,2.12816 -1.25494,4.36743 0,6.69596 h 25.508409 c 1.38868,-3.10606 0.65094,-4.85892 -0.11483,-6.59396 z"
       style="display:inline;fill:#000000;stroke:#000000;stroke-width:0.21043363px;stroke-linecap:butt;stroke-linejoin:miter;stroke-opacity:1" />
    <ellipse
       ry="2.0713387"
       rx="11.893495"
       cy="169.86914"
       cx="92.354469"
       id="path2674"
       style="display:inline;opacity:1;fill:none;fill-opacity:1;stroke:#000000;stroke-width:0.26499999;stroke-miterlimit:4;stroke-dasharray:none;stroke-opacity:1" />
    <path
       id="path2307-2-1-8"
       d="m 82.457771,161.42864 -3.08227,0.1063 v 6.69596 h 25.508409 l -0.11483,-6.59396 z"
       style="display:inline;fill:#ffffff;stroke:#000000;stroke-width:0.21043363px;stroke-linecap:butt;stroke-linejoin:miter;stroke-opacity:1" />
    <ellipse
       ry="1.3551344"
       rx="1.541133"
       cy="164.96596"
       cx="91.93409"
       id="path2278-0-9-1-7"
       style="display:inline;opacity:1;fill:#ffffff;fill-opacity:1;stroke:#000000;stroke-width:0.21076503;stroke-miterlimit:4;stroke-dasharray:none;stroke-opacity:1" />
    <ellipse
       ry="1.3551344"
       rx="1.541133"
       cy="164.93935"
       cx="100.06489"
       id="path2278-9-3-9-9-9"
       style="display:inline;opacity:1;fill:#ffffff;fill-opacity:1;stroke:#000000;stroke-width:0.21076503;stroke-miterlimit:4;stroke-dasharray:none;stroke-opacity:1" />
    <ellipse
       ry="1.3551344"
       rx="1.541133"
       cy="164.83305"
       cx="83.750145"
       id="path2278-7-9-9-3-1"
       style="display:inline;opacity:1;fill:#ffffff;fill-opacity:1;stroke:#000000;stroke-width:0.21076503;stroke-miterlimit:4;stroke-dasharray:none;stroke-opacity:1" />
    <path
       id="path2413-6-4"
       d="m 79.577411,144.09803 0.10452,2.16697 c 5.11636,3.58743 2.0352,12.22629 0.31886,13.39191 l -0.0896,1.92073 24.972709,0.102 0.11205,-1.90249 c -1.86009,-0.2657 -4.939,-10.60498 0.31886,-13.3919 l -0.229,-2.28722 z"
       style="display:inline;fill:none;stroke:#000000;stroke-width:0.21043363px;stroke-linecap:butt;stroke-linejoin:miter;stroke-opacity:1" />
    <path
       id="path5949-5-6-8"
       d="m 96.020591,146.91846 -2.04963,-0.68997 -2.33865,4.28894 1.45198,-0.06 -2.83474,4.16768 1.22467,-0.18225 -3.07839,4.24554 5.70156,-5.94746 -1.31901,0.22022 3.02186,-4.05896 -1.37159,0.087 z"
       style="display:inline;fill:#ffcc00;stroke:#000000;stroke-width:0.12022667;stroke-linecap:butt;stroke-linejoin:miter;stroke-miterlimit:4;stroke-dasharray:none;stroke-opacity:1" />
    <circle
       transform="rotate(18.604776)"
       r="7.5925345"
       cy="115.33628"
       cx="135.99159"
       id="path6025-6-2-4"
       style="display:inline;opacity:1;fill:none;fill-opacity:1;stroke:#000000;stroke-width:0.21076502;stroke-miterlimit:4;stroke-dasharray:none;stroke-opacity:1" />
    <path
       id="path5949-0-5-5-1"
       d="m 95.544741,146.7528 -2.31338,-0.77874 -2.60213,4.72956 1.63476,-0.0557 -3.16173,4.59172 1.37788,-0.19267 -2.08431,3.6414 4.93525,-5.5097 -1.39312,0.23803 3.37324,-4.47 -1.54404,0.0862 z"
       style="display:inline;fill:#000000;stroke:#000000;stroke-width:0.13422288;stroke-linecap:butt;stroke-linejoin:miter;stroke-miterlimit:4;stroke-dasharray:none;stroke-opacity:1" />
    <path
       id="path2676"
       d="m 85.424011,171.61254 -0.30577,123.34499 14.20508,0.25696 V 171.61427 c -4.82232,0.53042 -9.14055,0.87521 -13.89931,-7.9e-4 z"
       style="display:inline;fill:none;stroke:#000000;stroke-width:0.26499999;stroke-linecap:butt;stroke-linejoin:miter;stroke-miterlimit:4;stroke-dasharray:none;stroke-opacity:1" />
    <path
       id="path2330-1-12"
       d="m 80.004911,304.35098 c 4.32709,2.23546 3.24981,11.33287 0.31885,13.39191 l -1.59428,-0.74398 h -1.3817 l 0.10628,-11.90392 z"
       style="display:inline;fill:none;stroke:#000000;stroke-width:0.21043363px;stroke-linecap:butt;stroke-linejoin:miter;stroke-opacity:1" />
    <path
       id="path2332-1-4"
       d="m 77.454061,305.09499 -0.10628,11.90392 h 1.3817 l 0.0128,-12.22706 z"
       style="display:inline;fill:#ffcc00;stroke:#000000;stroke-width:0.21043363px;stroke-linecap:butt;stroke-linejoin:miter;stroke-opacity:1" />
    <path
       id="path2334-2-8"
       d="m 78.742311,304.77185 c 0,0 0.79056,-0.35957 0.75941,0.0164 -0.25716,3.10351 0.0275,9.89973 -0.0197,12.50379 l -0.75254,-0.29305 z"
       style="display:inline;fill:#000000;stroke:#000000;stroke-width:0.21043363px;stroke-linecap:butt;stroke-linejoin:miter;stroke-opacity:1" />
    <path
       id="path2330-6-9-3"
       d="m 105.63779,304.47123 c -4.3271,2.23544 -3.24981,11.33287 -0.31886,13.39191 l 1.59428,-0.74398 h 1.38171 l -0.10629,-11.90392 z"
       style="display:inline;fill:none;stroke:#000000;stroke-width:0.21043363px;stroke-linecap:butt;stroke-linejoin:miter;stroke-opacity:1" />
    <path
       id="path2332-2-7-1"
       d="m 108.18863,305.21524 0.10629,11.90392 h -1.38171 l -0.0128,-12.22706 z"
       style="display:inline;fill:#ffcc00;stroke:#000000;stroke-width:0.21043363px;stroke-linecap:butt;stroke-linejoin:miter;stroke-opacity:1" />
    <path
       id="path2334-8-0-6"
       d="m 106.90039,304.8921 c 0,0 -0.79057,-0.35959 -0.75942,0.0164 0.25716,3.10351 -0.0275,9.89973 0.0197,12.50378 l 0.75254,-0.29305 z"
       style="display:inline;fill:#000000;stroke:#000000;stroke-width:0.21043363px;stroke-linecap:butt;stroke-linejoin:miter;stroke-opacity:1" />
    <path
       id="path2307-6-9-10"
       d="m 82.895571,319.55732 -3.08226,0.10631 c -1.34972,2.12815 -1.25494,4.36743 0,6.69597 h 25.508409 c 1.38867,-3.10607 0.65093,-4.85894 -0.11484,-6.59397 z"
       style="display:inline;fill:none;stroke:#000000;stroke-width:0.21043363px;stroke-linecap:butt;stroke-linejoin:miter;stroke-opacity:1" />
    <ellipse
       ry="1.3551344"
       rx="1.541133"
       cy="323.05194"
       cx="92.257072"
       id="path2278-0-9-1-5"
       style="display:inline;opacity:1;fill:#ffffff;fill-opacity:1;stroke:#000000;stroke-width:0.21076503;stroke-miterlimit:4;stroke-dasharray:none;stroke-opacity:1" />
    <ellipse
       ry="1.3551344"
       rx="1.541133"
       cy="323.02533"
       cx="100.38787"
       id="path2278-9-3-9-9-0"
       style="display:inline;opacity:1;fill:#ffffff;fill-opacity:1;stroke:#000000;stroke-width:0.21076503;stroke-miterlimit:4;stroke-dasharray:none;stroke-opacity:1" />
    <ellipse
       ry="1.3551344"
       rx="1.541133"
       cy="322.91901"
       cx="84.073112"
       id="path2278-7-9-9-3-4"
       style="display:inline;opacity:1;fill:#ffffff;fill-opacity:1;stroke:#000000;stroke-width:0.21076503;stroke-miterlimit:4;stroke-dasharray:none;stroke-opacity:1" />
    <path
       id="path2307-2-1-0"
       d="m 82.780741,319.51462 -3.08227,0.10631 v 6.69594 h 25.508409 l -0.11483,-6.59394 z"
       style="display:inline;fill:none;stroke:#000000;stroke-width:0.21043363px;stroke-linecap:butt;stroke-linejoin:miter;stroke-opacity:1" />
    <path
       id="path2413-6-9"
       d="m 79.900381,302.18401 0.10453,2.16697 c 5.11636,3.58743 2.03519,12.22629 0.31885,13.39191 l -0.0896,1.92074 24.972709,0.102 0.11205,-1.90249 c -1.86009,-0.26572 -4.93899,-10.605 0.31886,-13.39191 l -0.229,-2.28722 z"
       style="display:inline;fill:none;stroke:#000000;stroke-width:0.21043363px;stroke-linecap:butt;stroke-linejoin:miter;stroke-opacity:1" />
    <path
       id="path5949-5-6-2"
       d="m 96.343571,305.00445 -2.04963,-0.68998 -2.33865,4.28894 1.45197,-0.06 -2.83474,4.16769 1.22467,-0.18225 -3.07839,4.24553 5.70157,-5.94746 -1.31902,0.22021 3.02186,-4.05894 -1.37159,0.087 z"
       style="display:inline;fill:#ffcc00;stroke:#000000;stroke-width:0.12022667;stroke-linecap:butt;stroke-linejoin:miter;stroke-miterlimit:4;stroke-dasharray:none;stroke-opacity:1" />
    <circle
       transform="rotate(18.604776)"
       r="7.5925345"
       cy="265.05789"
       cx="186.73315"
       id="path6025-6-2-45"
       style="display:inline;opacity:1;fill:none;fill-opacity:1;stroke:#000000;stroke-width:0.21076502;stroke-miterlimit:4;stroke-dasharray:none;stroke-opacity:1" />
    <path
       id="path5949-0-5-5-6"
       d="m 95.867721,304.83879 -2.31338,-0.77875 -2.60214,4.72956 1.63476,-0.0557 -3.16173,4.59171 1.37789,-0.19267 -2.08432,3.64141 4.93525,-5.50971 -1.39311,0.23804 3.37323,-4.47 -1.54404,0.0862 z"
       style="display:inline;fill:#000000;stroke:#000000;stroke-width:0.13422288;stroke-linecap:butt;stroke-linejoin:miter;stroke-miterlimit:4;stroke-dasharray:none;stroke-opacity:1" />
    <path
       id="path2307-6-9-0-6"
       d="m 83.001571,294.95753 -3.08226,0.10628 c -1.34972,2.12818 -1.25494,4.36745 0,6.69597 h 25.508409 c 1.38868,-3.10605 0.65093,-4.85891 -0.11483,-6.59397 z"
       style="display:inline;fill:#000000;stroke:#000000;stroke-width:0.21043363px;stroke-linecap:butt;stroke-linejoin:miter;stroke-opacity:1" />
    <path
       id="path2307-2-1-4-0"
       d="m 82.886751,294.9148 -3.08227,0.10631 v 6.69597 h 25.508409 l -0.11483,-6.59397 z"
       style="display:inline;fill:#ffffff;stroke:#000000;stroke-width:0.21043363px;stroke-linecap:butt;stroke-linejoin:miter;stroke-opacity:1" />
    <ellipse
       ry="1.3551344"
       rx="1.541133"
       cy="298.31921"
       cx="84.179115"
       id="path2278-7-9-9-3-7-7"
       style="display:inline;opacity:1;fill:#ffffff;fill-opacity:1;stroke:#000000;stroke-width:0.21076503;stroke-miterlimit:4;stroke-dasharray:none;stroke-opacity:1" />
    <ellipse
       ry="8.5833807"
       rx="8.5031624"
       cy="341.40234"
       cx="92.084999"
       id="path2750"
       style="display:inline;opacity:1;fill:none;fill-opacity:1;stroke:#000000;stroke-width:0.19523148;stroke-miterlimit:4;stroke-dasharray:none;stroke-opacity:1" />
    <ellipse
       ry="6.9095683"
       rx="6.8449926"
       cy="341.30389"
       cx="92.084999"
       id="path2750-5"
       style="display:inline;opacity:1;fill:none;fill-opacity:1;stroke:#000000;stroke-width:0.19523148;stroke-miterlimit:4;stroke-dasharray:none;stroke-opacity:1" />
    <path
       id="path2676-9"
       d="m 92.618621,326.2915 0.0229,6.50089 -1.06173,0.0135 v -6.51436 c 0.36044,0.028 0.68319,0.0461 1.03888,-2e-5 z"
       style="display:inline;fill:none;stroke:#000000;stroke-width:0.16837044;stroke-linecap:butt;stroke-linejoin:miter;stroke-miterlimit:4;stroke-dasharray:none;stroke-opacity:1" />
    <path
       id="path2461"
       d="m 80.611401,64.186536 -0.002,4.10017 c -20.43989,2.89139 -32.456599,-9.09254 -41.104706,-27.025293 l 5.693526,-0.861851 c 3.144851,11.140784 13.24352,23.447994 35.41318,23.786974 z"
       style="display:inline;fill:#000000;stroke:#000000;stroke-width:0.26458332px;stroke-linecap:butt;stroke-linejoin:miter;stroke-opacity:1" />
    <path
       id="path2465"
       d="m 45.198221,40.399562 0.165079,-3.3904 C -11.264917,45.810936 -6.8955317,137.37456 40.922078,149.17361 l 1.737056,-3.06895 -4.949854,-2.03372 3.156101,-8.40997 C 4.3367013,116.32125 10.960553,57.966156 43.095442,47.781496 l -3.590747,-6.520083 z"
       style="display:inline;fill:none;stroke:#000000;stroke-width:0.26458332px;stroke-linecap:butt;stroke-linejoin:miter;stroke-opacity:1" />
    <ellipse
       ry="1.3551344"
       rx="1.541133"
       cy="298.45209"
       cx="92.363075"
       id="path2278-0-9-1-0-3"
       style="display:inline;opacity:1;fill:#ffffff;fill-opacity:1;stroke:#000000;stroke-width:0.21076503;stroke-miterlimit:4;stroke-dasharray:none;stroke-opacity:1" />
    <ellipse
       ry="1.3551344"
       rx="1.541133"
       cy="298.42548"
       cx="100.49387"
       id="path2278-9-3-9-9-7-2"
       style="display:inline;opacity:1;fill:#ffffff;fill-opacity:1;stroke:#000000;stroke-width:0.21076503;stroke-miterlimit:4;stroke-dasharray:none;stroke-opacity:1" />
    <path
       id="path2305"
       d="m 82.765671,112.69596 -0.0376,-48.509414 18.580599,0.26727 -0.26727,48.509424 z"
       style="fill:none;stroke:#000000;stroke-width:0.26499999;stroke-linecap:butt;stroke-linejoin:miter;stroke-miterlimit:4;stroke-dasharray:none;stroke-opacity:1" />
  </g>
</svg>
