<?xml version="1.0" encoding="UTF-8" standalone="no"?>
<svg
   xmlns:dc="http://purl.org/dc/elements/1.1/"
   xmlns:cc="http://creativecommons.org/ns#"
   xmlns:rdf="http://www.w3.org/1999/02/22-rdf-syntax-ns#"
   xmlns:svg="http://www.w3.org/2000/svg"
   xmlns="http://www.w3.org/2000/svg"
   id="svg5519"
   version="1.1"
   viewBox="0 0 155.33585 195.10666"
   height="195.10666mm"
   width="155.33585mm">
  <defs
     id="defs5513" />
  <metadata
     id="metadata5516">
    <rdf:RDF>
      <cc:Work
         rdf:about="">
        <dc:format>image/svg+xml</dc:format>
        <dc:type
           rdf:resource="http://purl.org/dc/dcmitype/StillImage" />
        <dc:title></dc:title>
      </cc:Work>
    </rdf:RDF>
  </metadata>
  <g
     transform="translate(-48.576128,-99.660954)"
     id="layer1">
    <path
       id="path1134"
       d="m 112.44915,240.46051 c -1.91443,1.6711 -5.46102,2.53277 -5.8956,6.79362 -24.805628,23.7124 16.35903,38.9066 28.35593,33.0819 17.75672,-8.6212 13.1992,-23.60337 -3.98755,-25.69755 -3.46995,-0.89034 -6.95559,-1.68649 -10.04273,-4.87367 0.11982,-8.41298 -4.90686,-9.14222 -8.43005,-9.3043 z"
       style="display:inline;fill:#ffffff;stroke:#000000;stroke-width:1.17005122;stroke-linecap:butt;stroke-linejoin:miter;stroke-miterlimit:4;stroke-dasharray:none;stroke-opacity:1" />
    <path
       id="path1033"
       d="m 102.566,177.10271 c -18.961277,-5.35576 -13.437396,-27.37368 10.33809,-23.92531 -16.819786,-14.31177 -22.276436,-38.25304 3.83987,-24.2207 -2.09335,-2.83134 -3.3002,-5.13077 1.47687,-3.83986 -5.16379,-3.14643 -11.10251,-4.62509 -16.83634,-3.26101 -8.500607,4.01313 -16.860917,4.90629 -20.380828,17.43898 -1.780288,6.33877 -1.793949,13.6601 0.295381,19.4947 1.935401,5.25913 6.978769,16.32263 21.266957,18.3132 z"
       style="display:inline;fill:#000000;stroke:#000000;stroke-width:0.58481127px;stroke-linecap:butt;stroke-linejoin:miter;stroke-opacity:1" />
    <ellipse
       ry="13.100166"
       rx="12.601111"
       cy="146.28654"
       cx="67.498451"
       id="path1014"
       style="display:inline;opacity:1;fill:#000000;fill-opacity:1;stroke:#000000;stroke-width:1.10515523;stroke-miterlimit:4;stroke-dasharray:none;stroke-opacity:1" />
    <ellipse
       ry="13.100166"
       rx="12.601113"
       cy="113.3137"
       cx="92.794838"
       id="path1014-2"
       style="display:inline;opacity:1;fill:#000000;fill-opacity:1;stroke:#000000;stroke-width:1.10515523;stroke-miterlimit:4;stroke-dasharray:none;stroke-opacity:1" />
    <path
       id="path1095"
       d="m 102.566,177.10271 c -8.625528,7.35456 -19.949438,13.18613 -28.968297,18.18066 2.999541,1.52677 3.92377,4.78297 4.594949,8.25004 8.574072,-4.66146 14.296851,-7.9075 25.481058,-16.39562 l 0.10444,3.96837 c 17.894,13.54361 24.79277,0.92669 27.36082,-0.73103 l -3.55064,-14.30699 32.89561,-24.22789 c -4.06805,-2.78815 -3.87532,-5.1029 -4.59494,-7.51901 l -13.68041,9.92091 c -3.35498,8.18001 -8.39036,11.87893 -14.09812,13.78484 -11.57066,11.47626 -11.73073,22.27394 -25.54447,9.07572 z"
       style="display:inline;fill:#000000;stroke:#000000;stroke-width:0.58481127px;stroke-linecap:butt;stroke-linejoin:miter;stroke-opacity:1" />
    <path
       id="path1119"
       d="m 115.78766,233.40052 -3.622,7.65074 c -1.19021,3.46769 3.60038,5.43573 4.74973,1.78412 l 5.7105,-10.78698 c -4.50728,0.92466 -3.71226,1.1909 -6.83823,1.35212 z"
       style="display:inline;fill:#000000;stroke:#000000;stroke-width:0.58481127px;stroke-linecap:butt;stroke-linejoin:miter;stroke-opacity:1" />
    <path
       id="path1123"
       d="m 89.450263,242.59043 c -2.82189,0.006 -5.638919,0.0289 -7.101279,4.3861 -25.552931,10.09736 -5.55312,46.6253 20.155106,47.20261 12.04146,0.27041 22.2888,-15.53258 10.02533,-26.10763 -5.47901,-4.72467 -12.840356,-7.0871 -16.395597,-12.63611 1.976171,-3.01422 1.11547,-5.0828 -0.208851,-6.99686 z"
       style="display:inline;fill:#ffffff;stroke:#000000;stroke-width:1.17005122;stroke-linecap:butt;stroke-linejoin:miter;stroke-miterlimit:4;stroke-dasharray:none;stroke-opacity:1" />
    <path
       id="path1136"
       d="m 130.92193,254.63848 c -4.33208,0.21815 -7.8654,1.12083 -9.45199,3.69217"
       style="display:inline;fill:none;stroke:#000000;stroke-width:0.83575094;stroke-linecap:butt;stroke-linejoin:miter;stroke-miterlimit:4;stroke-dasharray:none;stroke-opacity:1" />
    <path
       id="path1129-2"
       d="m 120.87919,249.76481 c -0.75579,3.02196 -1.20258,2.91469 -2.61707,3.5417"
       style="display:inline;fill:none;stroke:#000000;stroke-width:0.83575094;stroke-linecap:butt;stroke-linejoin:miter;stroke-miterlimit:4;stroke-dasharray:none;stroke-opacity:1" />
    <path
       id="path1127-0"
       d="m 106.55355,247.25413 c -0.18516,2.08659 0.0272,3.88928 1.7753,4.59494"
       style="display:inline;fill:none;stroke:#000000;stroke-width:0.83575094;stroke-linecap:butt;stroke-linejoin:miter;stroke-miterlimit:4;stroke-dasharray:none;stroke-opacity:1" />
    <path
       id="path832"
       d="m 75.775102,206.27007 c 5.321842,0.34891 8.891042,-13.74564 -5.778289,-13.74295 l 1.24936,1.87405 c 4.997029,-0.27894 7.908219,5.13479 4.528929,11.8689 z"
       style="display:inline;fill:#ffffff;stroke:#000000;stroke-width:1.16863096;stroke-linecap:butt;stroke-linejoin:miter;stroke-miterlimit:4;stroke-dasharray:none;stroke-opacity:1" />
    <path
       id="path832-4"
       d="m 164.85107,151.91167 c -2.06817,4.59735 -15.41671,1.32811 -8.9108,-10.91664 l 1.01053,1.87381 c -2.44828,4.04785 0.78044,8.8783 7.90027,9.04283 z"
       style="display:inline;fill:#ffffff;stroke:#000000;stroke-width:1.1046195;stroke-linecap:butt;stroke-linejoin:miter;stroke-miterlimit:4;stroke-dasharray:none;stroke-opacity:1" />
    <path
       id="path1125"
       d="m 88.510402,269.22023 c 2.690821,-4.14121 7.06737,-4.3491 11.38292,-4.69936"
       style="display:inline;fill:none;stroke:#000000;stroke-width:0.83575094;stroke-linecap:butt;stroke-linejoin:miter;stroke-miterlimit:4;stroke-dasharray:none;stroke-opacity:1" />
    <path
       id="path1127"
       d="m 82.348984,246.97653 c -0.185161,2.0866 0.0272,3.88929 1.77532,4.59495"
       style="display:inline;fill:none;stroke:#000000;stroke-width:0.83575094;stroke-linecap:butt;stroke-linejoin:miter;stroke-miterlimit:4;stroke-dasharray:none;stroke-opacity:1" />
    <path
       id="path1129"
       d="m 96.133823,255.4354 c -2.309619,2.09026 -3.592959,1.10162 -5.1171,0.83544"
       style="display:inline;fill:none;stroke:#000000;stroke-width:0.83575094;stroke-linecap:butt;stroke-linejoin:miter;stroke-miterlimit:4;stroke-dasharray:none;stroke-opacity:1" />
    <path
       id="path1117"
       d="m 95.954372,231.35611 -6.827919,13.23965 c -0.0737,0.143 -1.011121,6.52309 3.591991,4.43061 l 8.154176,-14.84336 c -3.433078,-1.60566 -1.859077,-0.62912 -4.918248,-2.8269 z"
       style="display:inline;fill:#000000;stroke:#000000;stroke-width:0.58481127px;stroke-linecap:butt;stroke-linejoin:miter;stroke-opacity:1" />
    <path
       id="path1098"
       d="m 103.77814,191.10616 c -8.437268,6.27824 -14.176498,14.37356 -9.085468,29.76271 l -3.34178,4.3861 c 5.152991,9.17157 10.798538,9.96969 16.500038,9.81647 2.11625,-1.74048 3.11919,-3.34181 3.0076,-4.80382 l 3.4671,-0.20887 c -0.28279,1.24228 0.076,2.37763 1.46203,3.34177 6.56686,-0.53441 11.24756,-2.95501 15.03801,-6.26584 l -0.83546,-4.5114 c 6.94119,-12.73211 6.15833,-23.12907 1.14875,-32.24817 -9.614,10.61205 -18.57573,7.52611 -27.36082,0.73105 z"
       style="display:inline;fill:#666666;fill-opacity:1;stroke:#000000;stroke-width:1.25362635;stroke-linecap:butt;stroke-linejoin:miter;stroke-miterlimit:4;stroke-dasharray:none;stroke-opacity:1" />
    <ellipse
       ry="7.3623571"
       rx="3.1329181"
       cy="209.74678"
       cx="115.99646"
       id="path1100"
       style="display:inline;opacity:1;fill:#ffffff;fill-opacity:1;stroke:#000000;stroke-width:0.83575094;stroke-miterlimit:4;stroke-dasharray:none;stroke-opacity:1" />
    <ellipse
       ry="5.5166998"
       rx="2.347532"
       cy="206.33188"
       cx="128.94591"
       id="path1100-6"
       style="display:inline;opacity:1;fill:#ffffff;fill-opacity:1;stroke:#000000;stroke-width:0.83575094;stroke-miterlimit:4;stroke-dasharray:none;stroke-opacity:1" />
    <path
       id="path834"
       d="m 69.687623,192.52712 c -1.70913,-1.81049 -9.1696,-1.10635 -10.93502,-3.43259 -1.90276,-2.50721 -2.81604,-5.95888 -5.4628,-5.00057 -6.76213,2.44836 -3.16438,13.98342 3.513819,12.49357 -0.650989,0 -10.36938,18.95 -6.871469,23.34739 0.11648,2.8428 0.77392,5.25285 3.98232,5.62211 3.131279,2.68673 4.76367,0.0203 6.48105,-2.34255 2.1871,-4.15586 9.14902,-10.82282 15.070378,-16.94441 1.732212,-4.59552 3.389162,-10.81167 -4.528928,-11.86892 z"
       style="display:inline;fill:#ffffff;stroke:#000000;stroke-width:1.16863096;stroke-linecap:butt;stroke-linejoin:miter;stroke-miterlimit:4;stroke-dasharray:none;stroke-opacity:1" />
    <path
       id="path834-1"
       d="m 156.07735,140.73689 c -0.75366,-2.22945 3.14176,-8.14528 1.9825,-10.65039 -1.24942,-2.69999 -3.72597,-4.9927 -1.75253,-6.77735 5.04187,-4.55954 13.07629,3.55792 8.87178,8.47235 0.28861,-0.54343 20.41672,-0.25488 22.53686,4.61476 2.32154,1.3576 4.04196,2.97492 2.92778,5.81701 0.85464,3.80516 -2.095,3.98573 -4.82893,4.37181 -4.43896,-0.0167 -13.09112,2.83931 -20.82665,5.06846 -4.60432,-0.59137 -10.52816,-1.96408 -7.90026,-9.04283 z"
       style="display:inline;fill:#ffffff;stroke:#000000;stroke-width:1.1046195;stroke-linecap:butt;stroke-linejoin:miter;stroke-miterlimit:4;stroke-dasharray:none;stroke-opacity:1" />
    <path
       id="path1046"
       d="m 118.22083,125.11683 c 7.79597,4.5978 11.90852,10.11649 13.02256,16.38477 9.8,-10.25859 13.92289,-1.09963 11.48735,10.02535 -1.1693,6.42604 -4.59053,12.28912 -14.62028,16.50004 -2.77195,2.50205 -4.74697,4.73844 -5.84811,6.68356 -4.55873,7.01822 -9.65423,12.37245 -19.69636,2.39216 -24.850768,-9.1732 -4.846016,-28.37118 10.33809,-23.92531 -28.357276,-29.58708 -8.97138,-33.09572 3.83987,-24.22071 -1.97946,-2.77798 -2.96774,-4.95525 1.47688,-3.83986 z"
       style="display:inline;fill:#ffffff;stroke:#000000;stroke-width:1.25362635;stroke-linecap:butt;stroke-linejoin:miter;stroke-miterlimit:4;stroke-dasharray:none;stroke-opacity:1" />
    <path
       id="path838"
       d="m 53.914462,225.55703 c -0.382719,-4.46176 0.734581,-9.02352 6.559141,-13.89911 l 0.62782,0.31234 c -5.12813,4.7109 -7.81252,10.64817 -5.70333,14.21145 z"
       style="display:inline;fill:#000000;stroke:#000000;stroke-width:0.15460013px;stroke-linecap:butt;stroke-linejoin:miter;stroke-opacity:1" />
    <path
       id="path836"
       d="m 71.246173,195.01957 c -4.00121,0.37615 -7.52096,2.02072 -9.29209,10.7039 -0.41812,-3.09113 0.42396,-10.56245 8.64858,-11.7096 z"
       style="display:inline;fill:#000000;stroke:none;stroke-width:0.15460013px;stroke-linecap:butt;stroke-linejoin:miter;stroke-opacity:1" />
    <path
       id="path838-6"
       d="m 50.636873,223.34354 c -0.9624,-4.22257 -0.56922,-8.20191 4.76129,-14.92212 l 0.66208,0.54021 c -4.51884,6.21912 -6.37504,12.83443 -3.87304,15.83039 z"
       style="display:inline;fill:#000000;stroke:#000000;stroke-width:0.15460013px;stroke-linecap:butt;stroke-linejoin:miter;stroke-opacity:1" />
    <path
       id="path865"
       d="m 53.836383,206.27007 c 1.95233,3.62972 6.28065,6.14827 10.38529,6.01254 -3.66836,-1.3155 -7.32751,-2.66171 -10.38529,-6.01254 z"
       style="display:inline;fill:#000000;fill-opacity:1;stroke:#000000;stroke-width:0.15460013px;stroke-linecap:butt;stroke-linejoin:miter;stroke-opacity:1" />
    <path
       id="path838-3"
       d="m 190.64374,142.21327 c -3.555,-2.29762 -7.85851,-3.38736 -14.51097,-0.68661 l -0.0177,0.66259 c 6.2062,-2.1924 12.35276,-1.80103 14.39229,1.5395 z"
       style="display:inline;fill:#000000;stroke:#000000;stroke-width:0.14613192px;stroke-linecap:butt;stroke-linejoin:miter;stroke-opacity:1" />
    <path
       id="path836-1"
       d="m 157.46705,143.143 c 2.08796,-3.17343 5.02133,-5.38262 13.05527,-3.01147 -2.3951,-1.7195 -9.00549,-4.32893 -13.60952,2.0284 z"
       style="display:inline;fill:#000000;stroke:none;stroke-width:0.14613192px;stroke-linecap:butt;stroke-linejoin:miter;stroke-opacity:1" />
    <path
       id="path838-6-9"
       d="m 190.24904,138.49579 c -3.09832,-2.6755 -6.59459,-4.11151 -14.56791,-2.641 l 0.15743,0.7922 c 7.19516,-1.01508 13.54057,0.36825 14.93233,3.78519 z"
       style="display:inline;fill:#000000;stroke:#000000;stroke-width:0.14613192px;stroke-linecap:butt;stroke-linejoin:miter;stroke-opacity:1" />
    <path
       id="path865-39"
       d="m 174.5776,133.59722 c 2.16452,3.23904 2.34805,7.96891 0.41495,11.33529 0.52819,-3.64558 1.02667,-7.29708 -0.41495,-11.33529 z"
       style="display:inline;fill:#000000;fill-opacity:1;stroke:#000000;stroke-width:0.14613192px;stroke-linecap:butt;stroke-linejoin:miter;stroke-opacity:1" />
    <ellipse
       transform="matrix(0.91431382,-0.40500646,0.33260247,0.94306712,0,0)"
       ry="6.4778237"
       rx="2.3010836"
       cy="179.31944"
       cx="66.569839"
       id="path1049"
       style="display:inline;opacity:1;fill:#000000;fill-opacity:1;stroke:#000000;stroke-width:1.10683584;stroke-miterlimit:4;stroke-dasharray:none;stroke-opacity:1" />
    <ellipse
       transform="matrix(0.91431382,-0.40500646,0.33260247,0.94306712,0,0)"
       ry="5.3344235"
       rx="1.8949194"
       cy="179.66597"
       cx="73.616653"
       id="path1049-1"
       style="display:inline;opacity:1;fill:#000000;fill-opacity:1;stroke:#000000;stroke-width:0.91146827;stroke-miterlimit:4;stroke-dasharray:none;stroke-opacity:1" />
    <ellipse
       ry="8.4588776"
       rx="3.7595017"
       cy="133.0425"
       cx="140.01555"
       id="path1066"
       style="display:inline;opacity:1;fill:#000000;fill-opacity:1;stroke:#000000;stroke-width:1.10515523;stroke-miterlimit:4;stroke-dasharray:none;stroke-opacity:1" />
    <path
       id="path1068"
       d="m 128.11046,168.02699 c -11.45328,2.04005 -19.8677,-0.77286 -25.48106,-5.63925 2.00722,9.12033 4.1037,15.20131 8.77216,16.91776 6.20861,2.28269 8.56567,-9.83646 16.7089,-11.27851 z"
       style="display:inline;fill:#000000;stroke:#000000;stroke-width:1.25362635;stroke-linecap:butt;stroke-linejoin:miter;stroke-miterlimit:4;stroke-dasharray:none;stroke-opacity:1" />
    <path
       id="path1070"
       d="m 108.26649,160.53236 c -3.84671,0.33523 -8.22475,-0.61993 -10.234197,4.17722"
       style="display:inline;fill:none;stroke:#000000;stroke-width:0.83575094;stroke-linecap:butt;stroke-linejoin:miter;stroke-miterlimit:4;stroke-dasharray:none;stroke-opacity:1" />
    <path
       id="path1093"
       d="m 104.71801,170.01118 c 3.39517,-1.37854 5.61881,0.75748 7.93672,2.61076 2.75957,-2.17123 4.34266,0.37289 6.31514,2.13712 -1.98441,3.15838 -8.5639,11.54464 -14.25186,-4.74788 z"
       style="display:inline;fill:#ffffff;stroke:#000000;stroke-width:0.58481127px;stroke-linecap:butt;stroke-linejoin:miter;stroke-opacity:1" />
    <path
       id="path1044"
       d="m 184.39407,111.17891 c 14.9552,-3.86822 14.89424,14.21791 -9.81647,17.12661 -8.72889,-13.80507 -1.12587,-32.510767 9.81647,-17.12661 z"
       style="display:inline;fill:#ff8080;stroke:#000000;stroke-width:1.25362635;stroke-linecap:butt;stroke-linejoin:miter;stroke-miterlimit:4;stroke-dasharray:none;stroke-opacity:1" />
    <path
       id="path1102"
       d="m 203.72451,236.99016 -2.00453,-2.27179"
       style="display:inline;fill:none;stroke:#000000;stroke-width:0.5;stroke-linecap:butt;stroke-linejoin:miter;stroke-miterlimit:4;stroke-dasharray:none;stroke-opacity:1" />
  </g>
</svg>
