<?xml version="1.0" encoding="UTF-8" standalone="no"?>
<svg
   xmlns:dc="http://purl.org/dc/elements/1.1/"
   xmlns:cc="http://creativecommons.org/ns#"
   xmlns:rdf="http://www.w3.org/1999/02/22-rdf-syntax-ns#"
   xmlns:svg="http://www.w3.org/2000/svg"
   xmlns="http://www.w3.org/2000/svg"
   id="svg4585"
   version="1.1"
   viewBox="0 0 183.51411 184.38948"
   height="184.38948mm"
   width="183.51411mm">
  <defs
     id="defs4579" />
  <metadata
     id="metadata4582">
    <rdf:RDF>
      <cc:Work
         rdf:about="">
        <dc:format>image/svg+xml</dc:format>
        <dc:type
           rdf:resource="http://purl.org/dc/dcmitype/StillImage" />
        <dc:title></dc:title>
      </cc:Work>
    </rdf:RDF>
  </metadata>
  <g
     transform="translate(-16.344133,-59.662405)"
     id="layer1">
    <path
       id="path3725-6"
       d="m 17.551826,146.38356 c 9.629321,-54.167041 101.612184,-58.099311 112.770274,-0.2292 1.43764,6.98693 0.35278,14.64652 -7.33466,24.06681 1.47866,12.42613 39.88185,13.86778 50.95425,7.23074 C 225.93352,146.28688 188.82829,75.612499 127.969,62.787509 83.86785,53.493989 23.721364,77.424869 17.551826,146.38356 Z"
       style="fill:#000000;fill-opacity:1;stroke:#ffffff;stroke-width:2.40668297;stroke-linecap:butt;stroke-linejoin:miter;stroke-miterlimit:4;stroke-dasharray:none;stroke-opacity:1" />
    <path
       id="path3727-0"
       d="M 17.551826,146.38356 C 16.920022,224.49716 84.915698,252.63591 131.46814,239.90038 72.114003,253.6827 37.473564,160.77232 94.565674,133.31871 105.70731,127.96108 124.44019,127.57606 130.59715,148.90485 124.89659,92.665199 30.405602,86.839069 17.551826,146.38356 Z"
       style="fill:#000000;fill-opacity:1;stroke:#ffffff;stroke-width:2.40668297;stroke-linecap:butt;stroke-linejoin:miter;stroke-miterlimit:4;stroke-dasharray:none;stroke-opacity:1" />
    <path
       id="path3729-5"
       d="m 131.46814,239.90038 c 28.29488,-7.70678 42.24581,-22.33655 53.324,-38.90067 1.64814,-2.46431 0.0737,-5.42562 -3.8898,-4.53809 C 113.24405,228.89492 60.741251,154.3573 97.109864,132.28015 36.199858,159.34482 71.639385,252.79932 131.46814,239.90038 Z"
       style="fill:#000000;fill-opacity:1;stroke:#ffffff;stroke-width:2.40668297;stroke-linecap:butt;stroke-linejoin:miter;stroke-miterlimit:4;stroke-dasharray:none;stroke-opacity:1" />
  </g>
</svg>
