<svg width="1600" height="178" viewBox="0 0 1600 178" fill="none" xmlns="http://www.w3.org/2000/svg">
<path fill-rule="evenodd" clip-rule="evenodd" d="M0 96.8394L66.6667 118.359C133.333 139.879 266.667 182.919 400 177.539C533.333 172.159 666.667 118.359 800 86.0795C933.333 53.7997 1066.67 43.0397 1200 59.1796C1333.33 75.3195 1466.67 118.359 1533.33 139.879L1600 161.399V0H1533.33C1466.67 0 1333.33 0 1200 0C1066.67 0 933.333 0 800 0C666.667 0 533.333 0 400 0C266.667 0 133.333 0 66.6667 0H0V96.8394Z" fill="#15243B"/>
</svg>
