<?xml version="1.0" encoding="UTF-8" standalone="no"?>
<svg
   xmlns:dc="http://purl.org/dc/elements/1.1/"
   xmlns:cc="http://creativecommons.org/ns#"
   xmlns:rdf="http://www.w3.org/1999/02/22-rdf-syntax-ns#"
   xmlns:svg="http://www.w3.org/2000/svg"
   xmlns="http://www.w3.org/2000/svg"
   id="svg4584"
   version="1.1"
   viewBox="0 0 308.74939 304.07309"
   height="304.07309mm"
   width="308.74939mm">
  <defs
     id="defs4578" />
  <metadata
     id="metadata4581">
    <rdf:RDF>
      <cc:Work
         rdf:about="">
        <dc:format>image/svg+xml</dc:format>
        <dc:type
           rdf:resource="http://purl.org/dc/dcmitype/StillImage" />
        <dc:title></dc:title>
      </cc:Work>
    </rdf:RDF>
  </metadata>
  <g
     transform="translate(143.03542,10.006761)"
     id="layer1">
    <path
       id="path5767"
       d="m -12.976508,41.74834 3.5708481,-11.73278 c -6.7868291,1.19526 -13.6778151,1.55722 -20.9149751,-0.8502 l -16.663956,4.42105 -5.271255,-9.35222 0.680163,-1.36033 1.190284,0.34008 3.570849,2.72065 6.461533,-2.72065 24.655858,-14.9635495 10.0323823,-14.113356 c 5.6680165,-3.288242 11.3360269,-5.0205175 17.0040437,-2.890685 5.889381,2.782676 7.995259,9.34885998 10.372463,15.643721 L 24.602416,40.89814 Z"
       style="display:inline;fill:none;stroke:#000000;stroke-width:0.63621318;stroke-linecap:butt;stroke-linejoin:miter;stroke-miterlimit:4;stroke-dasharray:none;stroke-opacity:1" />
    <ellipse
       ry="126.85014"
       rx="154.05659"
       cy="166.89807"
       cx="11.339281"
       id="path5764"
       style="display:inline;opacity:1;fill:none;fill-opacity:1;stroke:#000000;stroke-width:0.63621318;stroke-miterlimit:4;stroke-dasharray:none;stroke-opacity:1" />
    <path
       id="path5774"
       d="m -101.90663,161.41359 c -7.84568,6.44151 1.922989,20.92028 1.923784,20.9212 7.071325,21.92099 24.591376,38.31033 42.323323,54.58747 l 3.36663,-5.5309 5.049942,7.45469 1.683312,6.49278 4.809473,3.36663 c -2.135373,-3.53851 -3.910879,-7.22094 -2.885685,-12.02368 l 9.618939,1.9238 c -1.353518,9.38506 0.392352,14.982 4.809472,17.31407 -0.37214,-5.87966 -1.091462,-11.90397 6.011833,-14.66887 l 27.894921,11.7832 19.237871,-0.96189 c -0.92931,-6.095 0.380392,-11.29438 2.645209,-16.11172 l 10.340354,1.44283 5.290418,14.90937 3.607106,-3.12617 22.844976,-7.21419 -0.961897,3.84756 c 2.552042,-3.5343 5.997868,-5.45984 5.530881,-14.42841 l 4.569003,-3.60709 0.961897,3.36663 0.240482,-6.73325 5.290399,-3.84759 3.126155,8.17611 c 38.521462,-37.33976 28.822612,-55.3914 38.716242,-81.28003 l -3.60711,-18.0355 c -3.37636,18.2196 3.61753,30.89477 -18.99741,62.52308 0.58554,-13.18252 -1.15771,-24.55517 -6.973723,-28.13538 1.041252,10.74222 4.117881,18.77059 1.683321,34.14722 -3.576239,5.21622 -6.680489,8.0725 -9.618947,10.09989 l -5.290425,-22.84499 -3.366624,6.25233 1.923788,22.36401 c -5.144089,6.44974 -14.762997,7.67886 -23.566393,9.85943 -1.8675,-0.0734 -1.94438,-12.68116 -2.645207,-20.92121 l -5.290424,3.60711 0.721434,7.69515 c -4.04687,2.15375 -6.662654,5.53415 -14.909363,4.08805 l -3.607087,-8.17609 -8.416579,1.20236 -4.568997,9.85942 c -11.469918,-2.42922 -16.8741417,-3.55865 -36.311487,-7.69515 -2.035252,-0.60646 0.867853,-4.17592 1.683314,-6.4928 l -7.454677,4.80948 -7.935627,13.46651 -12.745093,-5.29042 c 0.169405,-5.12555 0.665899,-10.08756 3.366631,-13.94745 -4.390011,0.47119 -7.21476,3.48594 -6.492779,12.26414 l -11.783202,-2.40473 -2.404732,-3.36663 -0.961897,5.53088 c -6.189603,-2.89233 -19.789939,-6.81384 -34.868642,-42.80427 -1.763473,-0.9526 -4.969783,-5.63023 -3.607103,-13.70699 z"
       style="display:inline;fill:none;stroke:#000000;stroke-width:0.63621318;stroke-linecap:butt;stroke-linejoin:miter;stroke-miterlimit:4;stroke-dasharray:none;stroke-opacity:1" />
    <path
       id="path5781"
       d="m -62.709464,103.21903 c 1.050413,-0.32604 5.183298,4.74226 8.657041,8.65704 l 25.730662,9.37847 c 0.329628,2.6416 2.982243,4.35402 -2.645209,9.37846 -6.337326,7.73853 -7.568602,5.99439 -9.618939,5.77137 l 3.847576,-4.32853 -8.657042,2.16426 c -8.99426,3.69002 -17.946205,7.16848 -23.806873,-4.80946 -4.617425,-12.3541 1.96378,-18.7356 6.492784,-26.21161 z"
       style="display:inline;fill:none;stroke:#000000;stroke-width:0.63621318;stroke-linecap:butt;stroke-linejoin:miter;stroke-miterlimit:4;stroke-dasharray:none;stroke-opacity:1" />
    <path
       id="path5783"
       d="m 40.453642,120.77359 c -0.283872,4.98425 5.677553,8.92879 11.061781,12.02367 4.607097,3.45864 9.422347,5.66838 14.668867,5.29042 l -9.137988,-5.29042 10.821306,2.40474 7.935627,-4.569 c 15.561603,-9.02989 6.474767,-23.63074 -1.683312,-32.46391 l -7.695151,10.8213 c -8.33641,4.16821 -3.322561,2.84427 -25.97113,11.7832 z"
       style="display:inline;fill:none;stroke:#000000;stroke-width:0.63621318;stroke-linecap:butt;stroke-linejoin:miter;stroke-miterlimit:4;stroke-dasharray:none;stroke-opacity:1" />
    <path
       id="path5785"
       d="m -9.4056599,30.01556 c 0,0 3.6884019,-11.92413 11.1430768,-13.84792"
       style="display:inline;fill:none;stroke:#000000;stroke-width:0.63621318;stroke-linecap:butt;stroke-linejoin:miter;stroke-miterlimit:4;stroke-dasharray:none;stroke-opacity:1" />
    <path
       id="path5770"
       d="m 5.3445229,146.74472 1.9237882,6.25231 v 21.64261 c -2.4575265,-2.62957 -7.2760969,2.61104 -11.542727,6.01184 -6.9875861,-2.89119 -12.2503481,-6.5216 -10.3403601,-13.22605 6.6530979,-3.73219 13.3061951,-11.18872 19.9592989,-20.68071 z"
       style="fill:none;stroke:#000000;stroke-width:0.63621318;stroke-linecap:butt;stroke-linejoin:miter;stroke-miterlimit:4;stroke-dasharray:none;stroke-opacity:1" />
    <path
       id="path5772"
       d="m 13.712998,146.98519 c -0.924024,4.07709 -5.7163569,10.45964 -2.404734,18.75694 h 1.490934 l 0.721421,7.93561 12.504618,4.08806 6.973729,-10.82131 c -0.06486,-2.62269 -2.666935,-4.99166 -9.137993,-6.97374 z"
       style="fill:none;stroke:#000000;stroke-width:0.63621318;stroke-linecap:butt;stroke-linejoin:miter;stroke-miterlimit:4;stroke-dasharray:none;stroke-opacity:1" />
    <path
       id="path5776"
       d="m -50.204848,74.84317 c -15.581158,6.75274 -16.339149,14.28565 -20.440236,21.6426 -21.927984,23.08909 -13.511336,24.65907 -16.352193,33.66628 3.292041,-11.29853 6.299522,-22.78678 17.073614,-29.09728 -25.849087,39.05526 -2.404739,49.53753 -2.404739,49.53753 l 9.859414,1.44283 7.454674,4.80948 8.657042,-2.88569 c -3.215943,5.13587 -20.285624,9.93206 -45.930423,12.50463 12.932916,0.0283 24.083615,6.8962 49.297053,-7.69515 l 19.718823,-15.63078 10.099886,-15.14982 c 2.359912,-3.36663 7.1527664,-6.73326 12.0236715,-10.09989 10.6983576,-16.78464 2.4942674,-14.03825 3.6070996,-19.9593 -2.1645562,5.5436 -0.9296601,13.06908 -14.6688801,20.44025 -18.378833,1.6946 -25.390411,-4.03123 -37.75433,-9.138 -18.098647,-15.77133 -11.285092,-25.5854 -0.240476,-34.38769 z"
       style="fill:none;stroke:#000000;stroke-width:0.63621318;stroke-linecap:butt;stroke-linejoin:miter;stroke-miterlimit:4;stroke-dasharray:none;stroke-opacity:1" />
    <path
       id="path5778"
       d="m 11.837301,106.58565 c -2.2626279,2.65531 -1.9572019,6.49587 4.088052,12.98557 14.736236,8.01579 17.009636,16.03157 23.566391,24.04735 11.109638,3.09411 13.519301,7.1549 19.478352,10.8213 6.270695,2.9901 12.536181,5.96198 17.55456,4.56899 l -6.492778,-4.08804 16.35218,-1.44284 c -5.049942,-1.11589 -10.099884,-0.6802 -15.149826,-4.08806 17.319281,-2.58831 26.445776,-10.63847 26.452086,-24.76875 l -7.214208,-18.75693 10.9175,18.0836 C 97.233438,113.94315 102.8868,112.87281 83.498386,90.71441 l 5.530888,-9.61893 c -2.276498,-7.04586 -5.867056,-5.98853 -10.58083,-9.37847 2.269328,4.35343 4.576714,6.82115 4.56899,8.89752 l -9.137987,5.77136 c -3.346315,10.00269 -7.074754,15.80206 -11.061782,18.75693 -9.906524,7.28431 -21.20957,12.57358 -35.590055,13.46651 -5.393968,-1.36929 -10.633572,-4.28213 -15.390309,-12.02368 z"
       style="fill:none;stroke:#000000;stroke-width:0.63621318;stroke-linecap:butt;stroke-linejoin:miter;stroke-miterlimit:4;stroke-dasharray:none;stroke-opacity:1" />
  </g>
</svg>
