<?xml version="1.0" encoding="UTF-8" standalone="no"?>
<!-- Created with Inkscape (http://www.inkscape.org/) -->

<svg
   xmlns:dc="http://purl.org/dc/elements/1.1/"
   xmlns:cc="http://creativecommons.org/ns#"
   xmlns:rdf="http://www.w3.org/1999/02/22-rdf-syntax-ns#"
   xmlns:svg="http://www.w3.org/2000/svg"
   xmlns="http://www.w3.org/2000/svg"
   xmlns:sodipodi="http://sodipodi.sourceforge.net/DTD/sodipodi-0.dtd"
   xmlns:inkscape="http://www.inkscape.org/namespaces/inkscape"
   width="119.14748mm"
   height="142.84656mm"
   viewBox="0 0 119.14748 142.84656"
   version="1.1"
   id="svg4636"
   inkscape:version="0.92.4 (5da689c313, 2019-01-14)"
   sodipodi:docname="reindeer.svg">
  <defs
     id="defs4630" />
  <sodipodi:namedview
     id="base"
     pagecolor="#ffffff"
     bordercolor="#666666"
     borderopacity="1.0"
     inkscape:pageopacity="0.0"
     inkscape:pageshadow="2"
     inkscape:zoom="0.35"
     inkscape:cx="32.743904"
     inkscape:cy="252.80336"
     inkscape:document-units="mm"
     inkscape:current-layer="layer1"
     showgrid="false"
     inkscape:pagecheckerboard="true"
     fit-margin-top="0"
     fit-margin-left="0"
     fit-margin-right="0"
     fit-margin-bottom="0"
     showborder="false"
     inkscape:window-width="1366"
     inkscape:window-height="705"
     inkscape:window-x="-8"
     inkscape:window-y="-8"
     inkscape:window-maximized="1" />
  <metadata
     id="metadata4633">
    <rdf:RDF>
      <cc:Work
         rdf:about="">
        <dc:format>image/svg+xml</dc:format>
        <dc:type
           rdf:resource="http://purl.org/dc/dcmitype/StillImage" />
        <dc:title></dc:title>
      </cc:Work>
    </rdf:RDF>
  </metadata>
  <g
     inkscape:label="Layer 1"
     inkscape:groupmode="layer"
     id="layer1"
     transform="translate(-46.456838,-72.87434)">
    <a
       id="a6032"
       transform="translate(271.38359,-61.028955)"
       style="display:inline;fill:#ffffff;fill-opacity:1;stroke:#000000;stroke-width:1.05833328;stroke-miterlimit:4;stroke-dasharray:none;stroke-opacity:1">
      <path
         sodipodi:nodetypes="cccccccccccscccccc"
         inkscape:connector-curvature="0"
         id="path6029"
         d="m -223.57291,229.90922 c 6.1763,4.38531 8.84224,8.46536 25.89136,13.79613 l 21.35566,0.37798 c 2.58516,-2.81855 5.13089,-5.91318 6.23661,-19.0878 -16.01717,6.38686 -22.55433,-3.24167 -28.34822,-10.39434 -4.56242,-3.25662 -8.97962,-5.93238 -13.04018,-7.18155 15.61045,-5.98474 30.80845,-10.59464 41.95536,-1.70089 4.57804,-4.31162 9.48594,-8.51329 18.52083,-11.33929 1.5425,-13.32456 6.31399,-23.42014 18.89881,-25.70238 8.39471,7.08794 6.93374,18.25409 0.75596,31.37202 7.23335,8.88649 6.99908,11.13511 10.20535,16.44197 l 13.04018,12.28422 c 7.02961,6.62209 -8.37753,17.13553 -14.17411,16.06399 l -7.37053,-2.07887 c -6.14401,-0.34838 -11.23735,0.35393 -15.875,1.51191 0.99828,8.80133 2.54321,17.20178 -3.77976,31.37202 l -74.46132,0.18899 z"
         style="fill:#ffffff;fill-opacity:1;stroke:#000000;stroke-width:1.05833328;stroke-linecap:butt;stroke-linejoin:miter;stroke-miterlimit:4;stroke-dasharray:none;stroke-opacity:1" />
    </a>
    <path
       style="display:inline;opacity:0.28000004;fill:#231c02;fill-opacity:1;stroke:none;stroke-width:0.26458332px;stroke-linecap:butt;stroke-linejoin:miter;stroke-opacity:1"
       d="m 72.555342,182.40355 c -10.86252,6.04192 -15.6633,19.15104 -19.557471,33.31734 l 2.437581,-0.12661 c 4.0654,-13.73289 5.86075,-27.02505 17.73742,-32.38872 z"
       id="path6125-8"
       inkscape:connector-curvature="0"
       sodipodi:nodetypes="ccccc" />
    <path
       style="display:inline;fill:#000000;fill-opacity:1;stroke:none;stroke-width:1.05833328;stroke-linecap:butt;stroke-linejoin:miter;stroke-miterlimit:4;stroke-dasharray:none;stroke-opacity:1"
       d="m 125.86276,183.24337 c -6.54526,0.29478 -12.03702,-0.67462 -16.06399,-3.40179 -1.92208,11.52827 -8.84131,23.05655 -15.119049,34.58482 l 27.403279,0.18899 c 4.30218,-7.88312 6.02241,-17.95096 3.77976,-31.37202 z"
       id="path6037"
       inkscape:connector-curvature="0"
       sodipodi:nodetypes="ccccc" />
    <path
       style="display:inline;fill:#000000;fill-opacity:1;stroke:none;stroke-width:0.26458332px;stroke-linecap:butt;stroke-linejoin:miter;stroke-opacity:1"
       d="m 136.25711,169.06925 c -2.4378,-13.40742 -9.5105,-18.96174 -18.14286,-19.46578 -8.5551,-0.49952 -11.56095,7.33787 -11.52827,16.81994 9.24022,14.53525 26.24867,9.75765 29.67113,2.64584 z"
       id="path6048"
       inkscape:connector-curvature="0"
       sodipodi:nodetypes="cscc" />
    <path
       style="display:inline;fill:#ffffff;stroke:none;stroke-width:0.17106195px;stroke-linecap:butt;stroke-linejoin:miter;stroke-opacity:1"
       d="m 131.06105,168.13403 c -1.57612,-8.66833 -6.14885,-12.25939 -11.72996,-12.58528 -5.53116,-0.32294 -7.47454,4.74418 -7.45341,10.87466 5.97411,9.39752 16.97064,6.30865 19.18337,1.71062 z"
       id="path6048-8"
       inkscape:connector-curvature="0"
       sodipodi:nodetypes="cscc" />
    <ellipse
       style="display:inline;opacity:1;fill:none;fill-opacity:1;stroke:#ffffff;stroke-width:0.26499999;stroke-miterlimit:4;stroke-dasharray:none;stroke-opacity:1"
       id="path6091"
       cx="120.60886"
       cy="165.38399"
       rx="7.1815476"
       ry="7.0870538" />
    <ellipse
       style="display:inline;opacity:1;fill:#000000;fill-opacity:1;stroke:#000000;stroke-width:0.1499342;stroke-miterlimit:4;stroke-dasharray:none;stroke-opacity:1"
       id="path6091-3"
       cx="120.77893"
       cy="166.06757"
       rx="4.0632443"
       ry="4.0097804" />
    <ellipse
       style="display:inline;opacity:1;fill:#ffffff;fill-opacity:1;stroke:none;stroke-width:0.26499999;stroke-miterlimit:4;stroke-dasharray:none;stroke-opacity:1"
       id="path6108"
       cx="118.58667"
       cy="162.58698"
       rx="1.984375"
       ry="1.6063988" />
    <path
       style="display:inline;fill:none;stroke:#000000;stroke-width:0.5;stroke-linecap:butt;stroke-linejoin:miter;stroke-miterlimit:4;stroke-dasharray:none;stroke-opacity:1"
       d="m 157.65055,180.9755 c 0,0 -9.73289,2.74033 -15.68601,-2.55134"
       id="path6112"
       inkscape:connector-curvature="0" />
    <path
       style="display:inline;fill:#000000;stroke:#000000;stroke-width:0.26458332px;stroke-linecap:butt;stroke-linejoin:miter;stroke-opacity:1"
       d="m 136.95636,178.80213 c 3.45067,-0.84293 4.85576,-2.87911 5.29166,-5.48066 0.0164,1.93653 -1.19405,4.06038 -0.28348,5.10269 -1.42559,-1.46753 -3.13204,0.26858 -5.00818,0.37797 z"
       id="path6114"
       inkscape:connector-curvature="0"
       sodipodi:nodetypes="cccc" />
    <path
       style="display:inline;fill:#ffffff;fill-opacity:1;stroke:#000000;stroke-width:0.79374999;stroke-linecap:butt;stroke-linejoin:miter;stroke-miterlimit:4;stroke-dasharray:none;stroke-opacity:1"
       d="m 73.702042,182.67639 c -11.87668,5.36367 -16.84719,18.1268 -20.912591,31.8597 l -5.16777,0.26828 0.0743,-14.91198 c 5.871621,-12.61228 11.743251,-17.05097 17.614871,-20.16159 z"
       id="path6125"
       inkscape:connector-curvature="0"
       sodipodi:nodetypes="cccccc" />
    <path
       style="opacity:0.1;fill:#000000;fill-opacity:1;stroke:#000000;stroke-width:0.26458332px;stroke-linecap:butt;stroke-linejoin:miter;stroke-opacity:1"
       d="m 59.905912,146.39069 c 9.20834,-2.53514 14.97987,-7.25732 29.0934,-6.67095 -9.03455,6.70141 -0.27754,12.51323 -0.18759,18.75841 -3.85238,-0.3328 4.89087,5.73525 -28.90581,-12.08746 z"
       id="path1737"
       inkscape:connector-curvature="0"
       sodipodi:nodetypes="cccc" />
    <path
       style="display:inline;fill:#000000;fill-opacity:1;stroke:none;stroke-width:0.26458332px;stroke-linecap:butt;stroke-linejoin:miter;stroke-opacity:1"
       d="m 109.01069,141.27853 c -7.19009,-2.64854 -11.069968,-7.77975 -15.156798,-12.75574 -1.67515,-3.46434 -0.9698,-7.84684 -1.80081,-12.00537 -1.45691,-7.2907 -8.54993,-10.82801 -14.55654,-14.85668 -2.57869,-1.80082 -3.28944,-3.60162 -4.80216,-5.40243 -2.27944,4.32331 -3.56294,6.35835 0.45021,10.05452 4.01315,3.69616 12.64416,4.83136 12.00539,11.55519 -0.63877,6.72383 -6.74223,2.72048 -13.50607,-0.45021 -4.7533,-2.2282 -3.02668,-7.86847 -6.15276,-12.45558 -5.70273,-11.45769 -10.34211,-7.49673 -15.306871,-8.25372 -1.61534,3.55647 2.13444,4.98275 5.552491,7.20325 3.41805,2.2205 4.26294,5.09903 3.90175,7.80349 -0.36119,2.70446 1.55056,7.92017 3.90175,10.35466 2.35119,2.43447 8.35646,2.20173 9.15411,3.60162 0.79765,1.39987 3.72706,6.66257 -0.60026,6.90309 -4.32732,0.24052 -6.65663,-1.39064 -10.35465,-6.15277 -3.95837,-3.80557 -8.1503,-5.97622 -12.905801,-4.20189 -4.50988,3.02132 -1.58087,3.85472 0.4502,4.95223 l 7.953581,6.90311 c 5.6229,7.81896 9.7116,5.60175 15.00673,5.85263 5.29513,0.25087 8.84366,-3.91393 13.65613,-5.10231 10.33092,0.27386 15.420008,6.83999 19.508758,12.30553 z"
       id="path6116"
       inkscape:connector-curvature="0"
       sodipodi:nodetypes="ccscczzscczzzzzcccczccc" />
    <path
       style="display:inline;fill:#000000;fill-opacity:1;stroke:none;stroke-width:0.26458332px;stroke-linecap:butt;stroke-linejoin:miter;stroke-opacity:1"
       d="m 101.82347,163.96658 c 0,0 7.47981,-3.63226 3.62857,-6.04762 -15.652948,-6.54098 -24.332308,-17.34307 -40.065468,-11.90625 4.2644,1.64756 6.30242,4.40832 7.55952,7.55952 7.00822,8.74903 12.64043,16.02975 28.877378,10.39435 z"
       id="path6050"
       inkscape:connector-curvature="0"
       sodipodi:nodetypes="ccccc" />
    <path
       style="display:inline;fill:#000000;stroke:none;stroke-width:0.26458332px;stroke-linecap:butt;stroke-linejoin:miter;stroke-opacity:1"
       d="m 138.97772,112.41628 c -9.54709,3.81585 -10.76722,11.75493 -14.25856,20.94031 l 0.01,-0.006 c 5.02364,-0.18954 10.04727,2.04344 15.07091,5.88181 -0.37966,-4.86183 5.14112,-11.69589 0.77471,-17.19223 -3.5775,-1.26835 -1.59688,-9.6237 -1.59688,-9.6237 z"
       id="path6050-4"
       inkscape:connector-curvature="0"
       sodipodi:nodetypes="ccccccc" />
    <path
       style="fill:#000000;fill-opacity:1;stroke:none;stroke-width:0.26458332px;stroke-linecap:butt;stroke-linejoin:miter;stroke-opacity:1"
       d="m 116.8821,136.967 c -2.00551,-10.23777 -6.23739,-16.18182 -12.20307,-18.78211 -15.334608,-1.61082 -15.048008,-12.77887 -16.341498,-17.08431 0,0 -5.87596,-3.77356 -3.71398,-5.4118 2.16199,-1.63824 6.50863,-0.44017 8.48909,1.69782 1.98046,2.138 1.75653,5.14351 4.03232,8.06464 2.71369,3.33102 13.195498,7.82827 10.293028,-0.63668 -2.90246,-8.46496 1.35261,-8.41907 -8.170748,-12.94587 -12.0011,-5.5945 -10.16713,-7.6783 -10.92971,-11.14194 -0.70575,-3.2055 0.16077,-6.50895 2.97118,-7.85241 2.59292,0.15522 3.2213,3.3589 4.669,6.68516 0.76239,1.75168 -0.47969,3.5415 5.199568,4.35066 5.73906,0.81768 9.14437,2.49083 9.76246,5.94237 1.26336,7.05478 0.78062,13.43354 4.98734,11.88473 2.44493,-0.90016 2.99338,-7.92365 4.56289,-17.40264 1.40655,-4.3734 4.24667,-4.08775 3.39564,6.89739 l -0.1532,5.59515 c -0.23804,2.75896 -1.03481,4.1673 -0.48349,6.92627 0.88616,3.63366 -3.36457,5.79964 -6.15459,8.38298 -2.55032,5.75911 -0.44315,9.00449 -0.31834,10.61136 0.12481,1.60687 5.94236,11.56639 5.94236,11.56639 z"
       id="path6127"
       inkscape:connector-curvature="0"
       sodipodi:nodetypes="ccczzczcscsssscccccscc" />
    <path
       style="display:inline;fill:#ffffff;fill-opacity:1;stroke:#000000;stroke-width:0.79374999;stroke-linecap:butt;stroke-linejoin:miter;stroke-miterlimit:4;stroke-dasharray:none;stroke-opacity:1"
       d="m 95.057702,183.05437 c -3.47826,6.47644 6.994458,28.81787 27.025298,31.56101 l -27.403278,-0.18899 c -7.304,-20.20522 -4.38341,-23.61288 -4.32603,-31.72441 z"
       id="path6123"
       inkscape:connector-curvature="0"
       sodipodi:nodetypes="ccccc" />
    <path
       style="display:inline;fill:#000000;stroke:none;stroke-width:0.26458332px;stroke-linecap:butt;stroke-linejoin:miter;stroke-opacity:1"
       d="m 160.44758,165.10051 c -4.49396,-0.0774 -8.44194,1.69713 -9.26041,6.80357 -0.29786,1.85835 0.90645,3.62525 3.0238,4.72469 3.02918,0.54666 4.57239,1.73017 5.85863,3.02381 4.57325,-4.25202 8.6414,-8.57204 0.37798,-14.55207 z"
       id="path6110"
       inkscape:connector-curvature="0"
       sodipodi:nodetypes="csccc" />
    <ellipse
       style="opacity:0.1;fill:#000000;fill-opacity:1;stroke:none;stroke-width:0.27969986;stroke-miterlimit:4;stroke-dasharray:none;stroke-opacity:1"
       id="path1720"
       cx="-19.409958"
       cy="178.72435"
       rx="3.5022371"
       ry="2.0775983"
       transform="rotate(-42.93318)" />
    <ellipse
       style="opacity:0.1;fill:#000000;fill-opacity:1;stroke:none;stroke-width:0.27969986;stroke-miterlimit:4;stroke-dasharray:none;stroke-opacity:1"
       id="path1720-1"
       cx="11.39971"
       cy="180.93163"
       rx="3.5022371"
       ry="2.0775983"
       transform="rotate(-37.722453)" />
  </g>
</svg>
