<?xml version="1.0" encoding="UTF-8" standalone="no"?>
<svg
   xmlns:dc="http://purl.org/dc/elements/1.1/"
   xmlns:cc="http://creativecommons.org/ns#"
   xmlns:rdf="http://www.w3.org/1999/02/22-rdf-syntax-ns#"
   xmlns:svg="http://www.w3.org/2000/svg"
   xmlns="http://www.w3.org/2000/svg"
   id="svg14631"
   version="1.1"
   viewBox="0 0 122.45227 177.06587"
   height="177.06587mm"
   width="122.45227mm">
  <defs
     id="defs14625" />
  <metadata
     id="metadata14628">
    <rdf:RDF>
      <cc:Work
         rdf:about="">
        <dc:format>image/svg+xml</dc:format>
        <dc:type
           rdf:resource="http://purl.org/dc/dcmitype/StillImage" />
        <dc:title></dc:title>
      </cc:Work>
    </rdf:RDF>
  </metadata>
  <g
     transform="translate(-50.385363,-88.465003)"
     id="layer1">
    <path
       id="path843-1"
       d="m 67.534335,239.95953 -7.589311,-82.25275 -8.32104,-21.10706 c 42.357241,14.6157 70.099556,11.95917 94.778786,5.68265 -1.84566,8.79463 -4.1161,17.58924 -5.47972,26.38384 l -4.50437,81.62597 z"
       style="display:inline;fill:none;stroke:#000000;stroke-width:1.21496773;stroke-linecap:butt;stroke-linejoin:miter;stroke-miterlimit:4;stroke-dasharray:none;stroke-opacity:1" />
    <path
       id="path845-5"
       d="m 157.371,224.46055 7.89004,-72.6394 c 2.38511,-10.38358 4.05125,-18.99044 6.91669,-28.41334 -5.93,14.51849 -13.90518,22.71545 -25.77496,18.87456 l -5.47972,26.38384 -1.82657,32.4724 -2.6778,49.15357 z"
       style="display:inline;fill:none;stroke:#000000;stroke-width:1.21496773;stroke-linecap:butt;stroke-linejoin:miter;stroke-miterlimit:4;stroke-dasharray:none;stroke-opacity:1" />
    <path
       id="path847-6"
       d="m 51.623984,136.59972 h -0.803656 l 0.608851,-4.46496 c 36.369922,17.66707 87.498931,10.86741 93.755871,5.68268 13.27198,5.88281 20.04141,-4.49071 26.99268,-14.40963 -3.59484,6.90925 -7.43349,22.66273 -25.77496,18.87456 -33.05262,8.90755 -64.428558,5.40748 -94.778786,-5.68265 z"
       style="display:inline;fill:none;fill-opacity:1;stroke:#000000;stroke-width:0.75935483;stroke-linecap:butt;stroke-linejoin:miter;stroke-miterlimit:4;stroke-dasharray:none;stroke-opacity:1" />
    <path
       id="path849-0"
       d="m 52.232834,132.13476 c 0.51984,-9.47493 3.158051,-19.65598 8.269557,-30.66146 35.492111,-1.948276 56.628919,-2.058367 80.221559,5.02283 l 4.4611,31.32131 c -5.53507,3.85693 -47.546879,13.57594 -92.952216,-5.68268 z"
       style="display:inline;fill:none;stroke:#000000;stroke-width:1.21496773;stroke-linecap:butt;stroke-linejoin:miter;stroke-miterlimit:4;stroke-dasharray:none;stroke-opacity:1" />
    <path
       id="path851-9"
       d="m 145.18505,137.81744 -4.4611,-31.32131 c 4.69292,-8.378631 12.63724,-11.394044 23.39197,-11.480732 l 8.06181,28.392412 c -9.37322,14.38238 -18.3848,19.54311 -26.99268,14.40963 z"
       style="display:inline;fill:none;stroke:#000000;stroke-width:1.21496773;stroke-linecap:butt;stroke-linejoin:miter;stroke-miterlimit:4;stroke-dasharray:none;stroke-opacity:1" />
    <path
       id="path853-1"
       d="M 60.502391,101.4733 C 85.538988,83.485278 123.63669,88.605137 163.31226,95.015398 155.52262,95.199511 147.76367,95.81313 140.72395,106.49613 117.69393,100.4564 106.87024,99.306846 60.502391,101.4733 Z"
       style="display:inline;fill:none;stroke:#000000;stroke-width:1.21496773;stroke-linecap:butt;stroke-linejoin:miter;stroke-miterlimit:4;stroke-dasharray:none;stroke-opacity:1" />
    <path
       id="path857-0"
       d="m 69.48606,107.58679 -2.525766,22.73183 1.435089,1.86562 c 16.701554,5.33284 36.110207,7.0562 58.551717,4.73579 l 1.29157,-1.14807 1.43509,-24.54004 -1.86562,-1.86561 c -17.43732,-2.75538 -35.907718,-4.21939 -56.39906,-3.1572 z"
       style="display:inline;fill:none;stroke:#000000;stroke-width:1.51870966;stroke-linecap:butt;stroke-linejoin:miter;stroke-miterlimit:4;stroke-dasharray:none;stroke-opacity:1" />
    <path
       id="path859-8"
       d="m 97.384212,98.459619 1.722111,-1.43509 8.323527,0.430524 -0.80365,1.607296 z"
       style="display:inline;fill:none;fill-opacity:1;stroke:#000000;stroke-width:0.75935483;stroke-linecap:butt;stroke-linejoin:miter;stroke-miterlimit:4;stroke-dasharray:none;stroke-opacity:1" />
    <path
       id="path861-1"
       d="m 76.575396,240.82058 -7.605971,-88.8321 27.984264,4.7358 -0.861063,-6.3144 4.018264,0.43054 0.43052,5.88386 28.55832,0.71756 -3.73124,91.12823 z"
       style="display:inline;fill:none;fill-opacity:1;stroke:#000000;stroke-width:1.21496773;stroke-linecap:butt;stroke-linejoin:miter;stroke-miterlimit:4;stroke-dasharray:none;stroke-opacity:1" />
    <path
       id="path863-4"
       d="m 140.58045,244.98234 6.17088,-88.8895 c 5.42896,-1.21474 11.28138,-6.28376 17.07758,-11.53812 l -8.61055,82.34549 z"
       style="display:inline;fill:none;fill-opacity:1;stroke:#000000;stroke-width:1.21496773;stroke-linecap:butt;stroke-linejoin:miter;stroke-miterlimit:4;stroke-dasharray:none;stroke-opacity:1" />
    <path
       id="path832-1"
       d="m 67.534335,239.95953 -10.390054,9.81601 86.105439,14.58053 -6.83104,-14.06389 z"
       style="display:inline;fill:none;stroke:#000000;stroke-width:1.21496773;stroke-linecap:butt;stroke-linejoin:miter;stroke-miterlimit:4;stroke-dasharray:none;stroke-opacity:1" />
    <path
       id="path834-3"
       d="m 136.41868,250.29218 20.95232,-25.83163 0.86106,3.44422 8.03649,4.87931 -23.01883,31.57199 z"
       style="display:inline;fill:none;stroke:#000000;stroke-width:1.21496773;stroke-linecap:butt;stroke-linejoin:miter;stroke-miterlimit:4;stroke-dasharray:none;stroke-opacity:1" />
  </g>
</svg>
