<?xml version="1.0" encoding="UTF-8" standalone="no"?>
<svg
   xmlns:dc="http://purl.org/dc/elements/1.1/"
   xmlns:cc="http://creativecommons.org/ns#"
   xmlns:rdf="http://www.w3.org/1999/02/22-rdf-syntax-ns#"
   xmlns:svg="http://www.w3.org/2000/svg"
   xmlns="http://www.w3.org/2000/svg"
   id="svg9592"
   version="1.1"
   viewBox="0 0 227.42075 316.88885"
   height="316.88885mm"
   width="227.42075mm">
  <defs
     id="defs9586" />
  <metadata
     id="metadata9589">
    <rdf:RDF>
      <cc:Work
         rdf:about="">
        <dc:format>image/svg+xml</dc:format>
        <dc:type
           rdf:resource="http://purl.org/dc/dcmitype/StillImage" />
        <dc:title></dc:title>
      </cc:Work>
    </rdf:RDF>
  </metadata>
  <g
     transform="translate(-16.313432,21.70634)"
     id="layer1">
    <path
       id="path878"
       d="m 37.746792,197.87972 c -6.4421,-4.75347 -13.610654,-2.24241 -18.179497,-25.72845 1.618124,-9.75412 4.807576,-15.31802 9.449407,-17.00893 -3.1082,-12.70903 -0.1373,-15.6915 1.5119,-20.78869 4.15774,-6.4121 8.31548,-7.96237 12.47322,-9.4494 -0.94399,-11.78695 0.83652,-13.38466 7.18154,-20.03274 4.44814,-4.25607 9.67012,-5.416752 15.11905,-5.669642 -0.95971,-17.98275 27.69246,-20.17249 41.577378,-30.23809 6.04762,-2.06651 12.09524,-1.20462 18.14286,3.77976 5.23235,-3.43145 7.01434,-8.58807 19.65476,-8.31548 10.58354,1.81783 14.04092,5.6717 17.76488,9.4494 6.04034,-4.12129 10.76917,-1.68507 15.875,-1.13392 7.1994,2.17363 13.07434,6.66503 16.25297,15.87499 10.44885,-1.18983 14.26127,3.15067 18.89881,6.80358 8.34132,6.359372 7.70387,13.841082 8.31549,21.166662 8.06548,3.10648 13.47708,7.9822 15.49702,15.11905 2.65108,9.03293 1.88223,15.78591 -1.5119,20.78869 4.60911,3.91429 8.31894,9.26747 7.9375,21.16666 -2.12171,11.05034 -7.42776,14.67058 -12.47322,18.89881 2.94011,12.03959 -0.0659,17.14207 -3.02381,22.3006 -7.60917,13.67703 -19.69482,10.56729 -31.17072,9.74409 C 145.15406,199.93938 90.844332,206.7887 37.746792,197.87972 Z"
       style="display:inline;fill:#aa7e51;fill-opacity:1;stroke:none;stroke-width:1;stroke-linecap:butt;stroke-linejoin:miter;stroke-miterlimit:4;stroke-dasharray:none;stroke-opacity:1" />
    <path
       id="path827"
       d="m 91.571762,237.16317 c -1.21813,9.54483 -2.064,18.8606 -9.6384,32.31696 l -11.33928,2.45684 -3.40179,-1.5119 -7.9375,5.85864 4.34673,-0.75597 6.42559,1.51191 7.37054,-2.45684 c 1.67438,1.52019 -0.80049,9.26422 -1.88988,14.93006 2.61544,3.67605 6.89354,-6.50343 10.96131,-14.93006 4.48298,2.87565 8.0263,6.33859 8.50446,11.71726 4.37033,-0.49261 3.54695,-5.02476 3.59078,-8.88244 -2.83743,-2.04605 -5.70307,-4.07802 -7.55953,-6.61458 -0.54642,-1.93069 1.14273,-9.67385 8.12649,-31.18303 z"
       style="display:inline;fill:#f79323;fill-opacity:1;stroke:none;stroke-width:1;stroke-linecap:butt;stroke-linejoin:miter;stroke-miterlimit:4;stroke-dasharray:none;stroke-opacity:1" />
    <path
       id="path829"
       d="m 124.26669,240.75395 c 0.54929,11.2721 2.4767,27.78106 0.75596,30.42708 -1.50944,2.16231 -4.18521,4.58383 -10.20536,7.74851 -1.36351,4.16383 -0.71404,6.98564 2.45685,8.12649 3.77976,-8.30781 7.55952,-7.71279 11.33928,-10.01638 l 3.59077,15.875 2.45685,2.26788 c 1.48248,-3.99818 1.66327,-9.29805 1.13393,-15.30806 2.90887,-0.0962 5.10801,1.93691 7.55952,3.21281 l 8.12649,0.189 3.02381,2.07885 c -1.95222,-2.54098 -1.00334,-5.72664 -6.99256,-7.37052 -3.04955,0.74882 -8.91265,-2.72264 -13.79613,-4.72472 -2.89489,-10.93891 -4.68072,-22.0795 -2.07887,-34.01785 z"
       style="display:inline;fill:#f79323;fill-opacity:1;stroke:none;stroke-width:1;stroke-linecap:butt;stroke-linejoin:miter;stroke-miterlimit:4;stroke-dasharray:none;stroke-opacity:1" />
    <path
       id="path876"
       d="m 160.95804,220.33036 c 29.13128,-2.11335 30.08089,3.40114 36.08139,4.27631 15.28846,3.9136 23.65529,-1.73616 26.72694,-11.22531 1.59558,-4.92911 1.50908,-12.25701 -3.20722,-18.17433 12.98577,-5.34744 15.86118,-14.30572 14.43255,-23.78699 -0.62813,-4.16861 -1.43362,-7.18931 -9.08716,-13.09621 6.61458,-8.10717 5.55815,-16.21435 0.8018,-24.32152 -3.76549,-3.45447 -5.61467,-7.62757 -14.69982,-9.08717 3.86731,-8.89279 -0.34581,-15.29929 -5.61266,-21.38156 -4.95086,-3.47875 -10.34715,-6.215082 -19.51067,-2.67269 -0.60771,-12.075292 -6.94131,-14.845992 -13.09622,-17.907062 -6.51931,-2.19329 -11.71704,0.23895 -16.83797,2.93996 -3.16894,-4.28397 -4.27563,-8.98039 -17.63979,-11.22531 -8.21455,0.55182 -12.78479,5.26857 -16.03617,11.49258 -3.93482,-3.28641 -5.83156,-7.93154 -15.76891,-7.21628 -13.810548,10.3332 -39.403258,11.82978 -41.426768,31.003272 -5.24761,-0.96917 -10.87775,1.5045 -16.83798,6.94901 -5.10134,10.27329 -3.20666,15.10523 -2.13816,20.57975 -6.57895,3.74177 -8.56953,7.36519 -8.01808,11.22532 l 1.87088,13.09621 c -9.22033,5.01134 -10.76078,13.44438 -10.42351,16.30344 0.33727,2.85906 7.21628,19.77794 7.21628,19.77794 l 19.80416,5.26836 z"
       style="display:inline;fill:#613916;fill-opacity:1;stroke:none;stroke-width:1;stroke-linecap:butt;stroke-linejoin:miter;stroke-miterlimit:4;stroke-dasharray:none;stroke-opacity:1" />
    <path
       id="path887"
       d="m 172.98516,218.72675 c 11.57575,-4.87619 13.51831,-12.50471 10.15626,-21.64884 8.73461,-5.40351 11.01951,-12.95693 2.67268,-24.05425 3.95671,-14.2223 -2.61989,-17.20908 -9.08716,-20.31249 -0.10596,-9.92254 -3.79497,-17.01636 -17.37252,-16.30344 -4.59014,-6.64962 -9.34019,-12.95941 -19.51067,-7.75081 -5.03008,-5.35191 -17.87183,-11.1113 -21.9161,2.13815 -4.43785,-3.9999 -6.77323,-6.034 -9.08717,-5.07812 l -2.40542,-5.07812 c 3.18158,-1.69412 7.08362,1.65502 10.95805,4.81085 6.84653,-12.35488 14.71995,-9.81987 22.98518,-1.60361 18.49242,-8.51254 17.25258,3.64682 21.9161,9.6217 19.41498,-4.08303 16.52785,8.13165 18.4416,16.83798 15.04915,4.08941 13.07118,12.94641 10.69078,21.9161 8.99109,10.34615 7.75752,19.23163 -3.20724,26.72695 4.10031,12.01306 0.78536,18.35565 -7.21628,21.11429 z"
       style="display:inline;fill:#c5996c;fill-opacity:1;stroke:#000000;stroke-width:1;stroke-linecap:butt;stroke-linejoin:miter;stroke-miterlimit:4;stroke-dasharray:none;stroke-opacity:1" />
    <path
       id="path889"
       d="m 108.57321,85.893788 c 6.13781,-3.34548 10.87833,-0.75253 14.16529,8.01809 11.04955,-17.73377 21.10657,-15.12077 30.73599,-3.74178 -9.05642,9.10164 -9.90429,15.271662 -9.08716,20.847032 6.83904,-10.0187 13.24931,-21.237962 23.51972,-21.648832 8.21014,1.50065 14.19456,5.22701 13.89801,15.234362 -16.71585,7.21628 -17.82228,14.43255 -22.45064,21.64883 10.63696,-10.68113 21.66507,-20.267 35.81412,-21.11429 9.91068,4.93254 15.83674,11.31403 10.15625,21.9161 l -23.25245,13.63075 c 11.81448,-5.42213 23.91658,-12.18648 33.67596,-8.01809 9.99791,8.37444 8.39168,16.74889 4.2763,25.12333 -9.32138,-0.44841 -17.85067,-0.84543 -26.4758,4.27632 11.90315,4.12474 24.34544,-4.75233 32.35574,5.61266 8.0103,10.36499 1.09383,20.18479 -9.6217,23.51972 l -19.51069,1.33634 c 0,0 26.19243,3.47451 23.25245,17.63979 -2.93997,14.16529 -13.12552,13.89824 -39.02135,9.88897 l -20.04521,0.26727 c 33.08561,-53.63846 -26.0347,-72.8752 -52.11756,-94.61341 -6.58254,-15.00597 -4.25554,-27.636072 -0.26727,-39.823162 z"
       style="display:inline;fill:#6e4623;fill-opacity:1;stroke:none;stroke-width:1;stroke-linecap:butt;stroke-linejoin:miter;stroke-miterlimit:4;stroke-dasharray:none;stroke-opacity:1" />
    <path
       id="path877"
       d="m 67.948242,117.7227 c 0,0 -9.71317,-0.43908 -12.66125,4.08805 -2.94806,4.52713 3.9678,18.59052 3.9678,18.59052 0,0 -10.76803,1.68521 -12.04421,8.60915 -1.27618,6.92394 6.75255,13.69145 6.75255,13.69145 0,0 -14.6079,3.70342 -15.48975,14.34158 -0.88184,10.63816 19.07757,26.10463 19.07757,26.10463 -11.19388,-17.32251 5.13419,-55.58289 10.39729,-85.42538 z"
       style="display:inline;fill:#6e4623;fill-opacity:1;stroke:none;stroke-width:1;stroke-linecap:butt;stroke-linejoin:miter;stroke-miterlimit:4;stroke-dasharray:none;stroke-opacity:1" />
    <path
       id="path831"
       d="m 91.555642,237.4197 c -21.94733,-9.82412 -35.6109,-26.70479 -38.32334,-52.91419 1.28159,-27.8303 23.34347,-74.14322 13.89802,-93.544342 -9.44546,-19.40114 -9.96884,-48.40505 2.93996,-64.41197 32.025648,-16.46122 41.056758,-0.94578 47.573978,8.81989 1.82154,9.59628 1.44575,13.06306 -8.55263,28.33057 -9.998368,15.26751 -5.30186,42.872242 -2.67269,57.195702 2.93024,6.52301 7.31512,10.13673 13.09621,10.95805 46.05865,0.26773 63.09101,16.61282 61.47199,44.63401 -1.61902,28.02119 -27.26715,56.75328 -49.36602,63.01115 -13.35516,2.15806 -26.71032,3.48725 -40.065478,-2.07887 z"
       style="display:inline;fill:#a97e51;fill-opacity:1;stroke:none;stroke-width:1;stroke-linecap:butt;stroke-linejoin:miter;stroke-miterlimit:4;stroke-dasharray:none;stroke-opacity:1" />
    <path
       id="path831-9"
       d="m 91.308772,19.475728 c -5.68361,0.53645 -12.62939,2.64838 -21.23849,7.07347 -12.9088,16.00692 -12.38533,45.01095 -2.93988,64.41208 9.44546,19.401122 -12.61627,65.713862 -13.89785,93.544162 2.71243,26.2094 16.37591,43.08996 38.32324,52.91409 13.355158,5.56613 26.710618,4.23698 40.065768,2.07893 0.78704,-0.22285 1.5787,-0.4772 2.3735,-0.75602 -11.50059,1.55941 -23.00118,1.88275 -34.501768,-2.91042 -21.94734,-9.82412 -35.61081,-26.70468 -38.32324,-52.91408 1.28158,-27.8303 23.3433,-74.14304 13.89785,-93.544162 -9.44545,-19.40113 -9.96892,-48.40516 2.93988,-64.41208 4.96013,-2.54952 9.36796,-4.3304 13.30099,-5.48597 z"
       style="display:inline;fill:#8e6a44;fill-opacity:1;stroke:none;stroke-width:1;stroke-linecap:butt;stroke-linejoin:miter;stroke-miterlimit:4;stroke-dasharray:none;stroke-opacity:1" />
    <path
       id="path4656"
       d="m 77.397652,274.05364 4.0477,-1.06582 -3.74177,6.94902 z"
       style="display:inline;opacity:0.4;fill:#000000;stroke:#000000;stroke-width:0.26458332px;stroke-linecap:butt;stroke-linejoin:miter;stroke-opacity:1" />
    <path
       id="path4658"
       d="m 135.8347,285.67777 -2.40542,-8.0181 5.47902,2.53905 -3.11333,-0.32425 z"
       style="display:inline;opacity:0.4;fill:#000000;stroke:#000000;stroke-width:0.26458332px;stroke-linecap:butt;stroke-linejoin:miter;stroke-opacity:1" />
    <path
       id="path4660"
       d="m 85.988942,270.71066 c 8.17452,7.45606 9.29746,9.02565 8.81989,12.16078 l -8.33975,-8.28863 c 0.21118,1.70309 -0.17914,-1.44471 -0.48014,-3.87215 z"
       style="display:inline;opacity:0.4;fill:#000000;stroke:#000000;stroke-width:0.26458332px;stroke-linecap:butt;stroke-linejoin:miter;stroke-opacity:1" />
    <path
       id="path4664"
       d="m 118.72945,284.20777 c -2.04054,-3.59127 3.90144,-5.98517 8.68626,-8.55263 l 2.00453,-1.73726 -1.59825,3.87543 c -5.40397,1.00214 -6.56275,3.67414 -9.09254,6.41446 z"
       style="display:inline;opacity:0.4;fill:#000000;stroke:#000000;stroke-width:0.26458332px;stroke-linecap:butt;stroke-linejoin:miter;stroke-opacity:1" />
    <path
       id="path891-8-8"
       d="m 91.317462,243.40738 c 0.30103,0.20611 0.56495,0.0411 0.8235,-0.17762 0.41841,0.28451 0.72639,0.0905 1.01727,-0.17761 0.19489,0.38933 0.51559,0.38031 0.96883,-0.0484 0.39355,0.0652 0.4987,-0.15797 0.59744,-0.38755 0.183,-0.006 0.36601,0.007 0.54901,-0.0807 -0.0863,0.23617 -0.24867,0.24437 -0.41983,0.22606 -0.16796,0.39244 -0.41345,0.5006 -0.71047,0.41983 -0.35716,0.42103 -0.73016,0.5411 -1.1303,0.14533 -0.17353,0.32819 -0.46705,0.34441 -0.8558,0.11303 -0.70166,0.32663 -0.76787,0.14494 -0.83965,-0.0323 z"
       style="display:inline;fill:#000000;stroke:#000000;stroke-width:0.02260601px;stroke-linecap:butt;stroke-linejoin:miter;stroke-opacity:1" />
    <path
       id="path891-8-8-3"
       d="m 91.629042,250.91429 c 0.30103,0.20611 0.56496,0.0411 0.82351,-0.17761 0.41841,0.28451 0.72638,0.0905 1.01727,-0.17762 0.19489,0.38934 0.51559,0.38029 0.96883,-0.0484 0.39355,0.0652 0.4987,-0.15796 0.59744,-0.38754 0.183,-0.006 0.36601,0.007 0.549,-0.0807 -0.0863,0.23617 -0.24866,0.24437 -0.41982,0.22606 -0.16797,0.39243 -0.41346,0.50062 -0.71048,0.41984 -0.35715,0.42103 -0.73015,0.5411 -1.1303,0.14531 -0.17352,0.32822 -0.46704,0.34444 -0.8558,0.11303 -0.70165,0.32666 -0.76786,0.14497 -0.83965,-0.0323 z"
       style="display:inline;fill:#000000;stroke:#000000;stroke-width:0.02260601px;stroke-linecap:butt;stroke-linejoin:miter;stroke-opacity:1" />
    <path
       id="path891-8-8-0"
       d="m 88.454042,257.79351 c 0.30103,0.20609 0.56496,0.0411 0.8235,-0.17764 0.41841,0.28451 0.72639,0.0905 1.01728,-0.17761 0.19489,0.38936 0.51559,0.38031 0.96883,-0.0484 0.39355,0.0652 0.49869,-0.15796 0.59744,-0.38754 0.183,-0.006 0.366,0.007 0.549,-0.0807 -0.0863,0.23617 -0.24866,0.24437 -0.41982,0.22606 -0.16797,0.39243 -0.41346,0.50059 -0.71048,0.41982 -0.35715,0.42103 -0.73015,0.54112 -1.1303,0.14533 -0.17352,0.32822 -0.46705,0.34441 -0.8558,0.11303 -0.70165,0.32666 -0.76786,0.14494 -0.83965,-0.0323 z"
       style="display:inline;fill:#000000;stroke:#000000;stroke-width:0.02260601px;stroke-linecap:butt;stroke-linejoin:miter;stroke-opacity:1" />
    <path
       id="path891-8-8-2"
       d="m 128.82132,246.28178 c -0.30103,0.20609 -0.56495,0.0411 -0.8235,-0.17764 -0.41841,0.28451 -0.72639,0.0905 -1.01727,-0.17761 -0.19489,0.38936 -0.51559,0.38031 -0.96883,-0.0484 -0.39355,0.0652 -0.4987,-0.15796 -0.59745,-0.38754 -0.183,-0.006 -0.366,0.007 -0.549,-0.0807 0.0863,0.23617 0.24866,0.24437 0.41983,0.22606 0.16796,0.39243 0.41345,0.50059 0.71047,0.41982 0.35716,0.42103 0.73015,0.54112 1.1303,0.14533 0.17352,0.32822 0.46705,0.34441 0.8558,0.11303 0.70165,0.32666 0.76787,0.14494 0.83965,-0.0323 z"
       style="display:inline;fill:#000000;stroke:#000000;stroke-width:0.02260601px;stroke-linecap:butt;stroke-linejoin:miter;stroke-opacity:1" />
    <path
       id="path891-8-8-3-8"
       d="m 129.0389,253.78867 c -0.30103,0.20611 -0.56496,0.0411 -0.8235,-0.17761 -0.41841,0.28451 -0.72639,0.0905 -1.01727,-0.17762 -0.19489,0.38937 -0.51559,0.38032 -0.96883,-0.0484 -0.39355,0.0652 -0.4987,-0.15795 -0.59745,-0.38753 -0.183,-0.006 -0.366,0.007 -0.549,-0.0807 0.0863,0.23617 0.24866,0.24437 0.41983,0.22606 0.16796,0.39243 0.41345,0.50059 0.71047,0.41981 0.35716,0.42104 0.73015,0.5411 1.1303,0.14534 0.17352,0.32822 0.46705,0.34441 0.8558,0.11303 0.70165,0.32665 0.76787,0.14494 0.83965,-0.0323 z"
       style="display:inline;fill:#000000;stroke:#000000;stroke-width:0.02260601px;stroke-linecap:butt;stroke-linejoin:miter;stroke-opacity:1" />
    <path
       id="path891-8-8-0-9"
       d="m 131.15557,260.66789 c -0.30103,0.20611 -0.56496,0.0411 -0.82351,-0.17761 -0.4184,0.28451 -0.72638,0.0905 -1.01727,-0.17762 -0.19489,0.38934 -0.51558,0.38029 -0.96883,-0.0484 -0.39355,0.0652 -0.4987,-0.15796 -0.59744,-0.38754 -0.183,-0.006 -0.366,0.007 -0.549,-0.0807 0.0863,0.23617 0.24866,0.24437 0.41982,0.22606 0.16797,0.39243 0.41346,0.50062 0.71048,0.41984 0.35715,0.42103 0.73015,0.5411 1.1303,0.14531 0.17352,0.32822 0.46704,0.34444 0.8558,0.11303 0.70165,0.32666 0.76787,0.14497 0.83965,-0.0323 z"
       style="display:inline;fill:#000000;stroke:#000000;stroke-width:0.02260601px;stroke-linecap:butt;stroke-linejoin:miter;stroke-opacity:1" />
    <ellipse
       ry="6.4144688"
       rx="6.2808337"
       cy="40.725243"
       cx="73.43264"
       id="path833"
       style="display:inline;opacity:1;fill:#000000;fill-opacity:1;stroke:#000000;stroke-width:1;stroke-miterlimit:4;stroke-dasharray:none;stroke-opacity:1" />
    <ellipse
       ry="5.8799295"
       rx="6.1471992"
       cy="42.858025"
       cx="91.462593"
       id="path835"
       style="display:inline;opacity:1;fill:#000000;fill-opacity:1;stroke:#000000;stroke-width:1;stroke-miterlimit:4;stroke-dasharray:none;stroke-opacity:1" />
    <path
       id="path839"
       d="m 23.581506,99.791808 c -1.797218,-12.86598 -15.8927911,-18.52258 0.801809,-42.22859 4.992727,-4.52561 13.765217,-5.16647 25.123337,-1.87088 11.35811,3.29559 16.62184,1.38886 24.58879,-1.06908 l 15.76891,-0.53454 6.949,30.46872 -9.08716,-1.87088 c -6.42185,9.15226 -15.79676,7.25275 -25.65787,6.68174 -9.86112,-0.57101 -21.67514,-4.84253 -30.20146,-1.87089 -5.96679,2.49563 -6.26374,7.82618 -8.285356,12.2944 z"
       style="display:inline;fill:#fcb318;fill-opacity:1;stroke:none;stroke-width:1;stroke-linecap:butt;stroke-linejoin:miter;stroke-miterlimit:4;stroke-dasharray:none;stroke-opacity:1" />
    <path
       id="path841"
       d="m 79.440832,10.523788 c -20.3218,-1.1623099 -25.94926,1.5569 -27.52876,5.34539 8.69219,16.76217 72.687668,23.88669 90.337098,16.03617 1.96142,-4.59729 -7.41365,-9.83627 -24.32152,-15.50163 z"
       style="display:inline;fill:#2b2b2b;fill-opacity:1;stroke:none;stroke-width:1;stroke-linecap:butt;stroke-linejoin:miter;stroke-miterlimit:4;stroke-dasharray:none;stroke-opacity:1" />
    <path
       id="path843"
       d="m 76.233602,19.076408 13.09621,-39.288618 c 12.664748,-2.515509 21.698678,0.41522 29.399638,5.345391 l -0.26727,41.961317 c -20.706468,7.88037 -38.386878,-1.93389 -42.228578,-8.01809 z"
       style="display:inline;fill:#000000;fill-opacity:1;stroke:#000000;stroke-width:1;stroke-linecap:butt;stroke-linejoin:miter;stroke-miterlimit:4;stroke-dasharray:none;stroke-opacity:1" />
    <path
       id="path879"
       d="m 79.440832,10.523788 38.486818,5.87993 0.53453,10.69078 c -16.46149,4.96025 -30.803848,3.1393 -42.228578,-8.01809 z"
       style="display:inline;fill:none;stroke:#000000;stroke-width:1;stroke-linecap:butt;stroke-linejoin:miter;stroke-miterlimit:4;stroke-dasharray:none;stroke-opacity:1" />
    <path
       id="path884"
       d="m 88.800642,-20.21221 c -0.69005,-0.172511 -0.81486,-2.331848 13.607148,-1.133926 14.42201,1.197923 18.51244,5.950645 15.7925,6.857293 0,0 -10.66605,2.171093 -16.92643,0.85342 -6.260388,-1.317673 -12.473218,-6.576787 -12.473218,-6.576787 z"
       style="display:inline;fill:#262626;fill-opacity:1;stroke:none;stroke-width:1;stroke-linecap:butt;stroke-linejoin:miter;stroke-miterlimit:4;stroke-dasharray:none;stroke-opacity:1" />
    <path
       id="path4700"
       d="m 79.440832,10.523788 c 10.02783,6.80491 18.68936,10.20404 39.015978,5.87993 0.90409,3.01916 0.57979,6.95962 0.53454,10.69078 -17.61998,8.18192 -38.380388,-1.37288 -43.286918,-8.01809 l 2.67807,-8.55262"
       style="display:inline;fill:#1f0802;fill-opacity:1;stroke:none;stroke-width:0.26458332px;stroke-linecap:butt;stroke-linejoin:miter;stroke-opacity:1" />
    <path
       id="path837"
       d="m 63.470492,58.198278 c 4.29381,-7.21173 12.04023,-11.05053 21.31573,-9.72222 17.492558,8.18553 32.009318,32.41624 17.238888,63.342882 -7.681098,9.26447 -17.815108,9.63066 -26.058778,-4.14268 -1.47678,-9.258002 22.74274,-26.235992 10.95805,-49.043962 -3.39713,-2.56464 -4.98971,-4.03317 -23.45389,-0.43402 z"
       style="display:inline;fill:#e34e2c;fill-opacity:1;stroke:none;stroke-width:1;stroke-linecap:butt;stroke-linejoin:miter;stroke-miterlimit:4;stroke-dasharray:none;stroke-opacity:1" />
    <path
       id="path870"
       d="m 54.055042,180.40425 a 11.721035,12.923748 0 0 0 -4.77697,10.39265 11.721035,12.923748 0 0 0 8.27288,12.35118 c -2.42882,-8.01852 -3.31326,-16.01378 -3.49591,-22.74383 z"
       style="display:inline;opacity:1;fill:#9d714a;fill-opacity:1;stroke:none;stroke-width:1.07764912;stroke-miterlimit:4;stroke-dasharray:none;stroke-opacity:1" />
    <path
       id="path883"
       d="m 109.28331,182.04596 c 0.56006,3.25872 -8.60002,20.99231 18.4416,29.13238 27.04161,8.14007 38.75961,-12.7609 38.12226,-11.90299 -16.67583,4.78947 -28.61873,10.27953 -37.58772,6.02306 -13.24999,-6.28812 -16.01579,-14.02943 -18.97614,-23.25245 z"
       style="display:inline;opacity:0.5;fill:#926443;fill-opacity:1;stroke:none;stroke-width:1;stroke-linecap:butt;stroke-linejoin:miter;stroke-miterlimit:4;stroke-dasharray:none;stroke-opacity:1" />
    <circle
       r="1.9377041"
       cy="37.050285"
       cx="75.364983"
       id="path845"
       style="display:inline;opacity:1;fill:#ffffff;fill-opacity:1;stroke:#000000;stroke-width:1;stroke-miterlimit:4;stroke-dasharray:none;stroke-opacity:1" />
    <ellipse
       ry="1.0583233"
       rx="1.1087196"
       cy="40.869621"
       cx="77.64109"
       id="path847"
       style="display:inline;opacity:1;fill:#ffffff;fill-opacity:1;stroke:#000000;stroke-width:0.7542401;stroke-miterlimit:4;stroke-dasharray:none;stroke-opacity:1" />
    <circle
       r="1.9377041"
       cy="39.722984"
       cx="93.172981"
       id="path845-2"
       style="display:inline;opacity:1;fill:#ffffff;fill-opacity:1;stroke:#000000;stroke-width:1;stroke-miterlimit:4;stroke-dasharray:none;stroke-opacity:1" />
    <ellipse
       ry="1.0583233"
       rx="1.1087196"
       cy="43.54232"
       cx="95.449104"
       id="path847-1"
       style="display:inline;opacity:1;fill:#ffffff;fill-opacity:1;stroke:#000000;stroke-width:0.7542401;stroke-miterlimit:4;stroke-dasharray:none;stroke-opacity:1" />
    <path
       id="path891"
       d="m 67.759262,143.23609 c 3.52332,2.41225 6.61232,0.48134 9.63839,-2.07887 4.89709,3.32987 8.5017,1.05897 11.90625,-2.07886 2.28101,4.55705 6.03451,4.45123 11.339278,-0.56697 4.60616,0.7634 5.83685,-1.84867 6.99256,-4.53571 2.14187,-0.0644 4.28373,0.0789 6.4256,-0.94495 -1.01049,2.76417 -2.91039,2.86012 -4.91369,2.64584 -1.96587,4.59306 -4.83912,5.85907 -8.31548,4.91369 -4.180208,4.92772 -8.545798,6.33314 -13.229158,1.70089 -2.03093,3.84142 -5.46637,4.0311 -10.01637,1.32292 -8.21223,3.82316 -8.98721,1.69651 -9.82738,-0.37798 z"
       style="display:inline;fill:#906341;fill-opacity:1;stroke:none;stroke-width:0.26458332px;stroke-linecap:butt;stroke-linejoin:miter;stroke-opacity:1" />
    <path
       id="path891-8"
       d="m 79.904102,149.11393 c 2.65588,1.81836 4.98437,0.36284 7.26543,-1.56705 3.69144,2.51006 6.40859,0.79825 8.97495,-1.56705 1.71943,3.43511 4.548818,3.35534 8.547558,-0.42738 3.47213,0.57545 4.39982,-1.39353 5.271,-3.41903 1.61454,-0.0485 3.22908,0.0595 4.84362,-0.7123 -0.76171,2.08363 -2.19385,2.15596 -3.70394,1.99444 -1.48188,3.46225 -3.64774,4.41657 -6.26822,3.70394 -3.15105,3.71452 -6.441828,4.77393 -9.972158,1.28213 -1.53091,2.89567 -4.12055,3.03865 -7.55035,0.99722 -6.19039,2.88191 -6.77457,1.27883 -7.40789,-0.28492 z"
       style="display:inline;fill:#906341;fill-opacity:1;stroke:none;stroke-width:0.19944321px;stroke-linecap:butt;stroke-linejoin:miter;stroke-opacity:1" />
    <path
       id="path885"
       d="m 149.99999,151.10755 c 9.15143,7.58548 10.32919,11.52226 10.42351,11.49259 -0.41957,4.43152 -7.16579,2.34974 -10.15624,5.87993 -1.8213,2.15002 1.75678,-1.40942 14.16528,6.68174 -2.24462,6.61221 -11.33811,4.91054 -9.6217,8.28536 2.05086,4.03241 9.84556,0.31068 10.95805,4.27631 -7.71199,8.4451 -6.44957,6.91541 -6.68174,9.6217 8.5079,1.97859 11.89375,-2.49433 13.36349,-5.34539 4.34311,-8.42501 10.37475,-13.79896 1.60361,-36.34865 -2.30651,-5.92981 -9.5037,-7.72015 -16.03618,-9.35444 -4.84563,-0.0261 -5.7779,2.88285 -8.01808,4.81085 z"
       style="display:inline;opacity:0.5;fill:#c5996c;fill-opacity:1;stroke:none;stroke-width:1;stroke-linecap:butt;stroke-linejoin:miter;stroke-miterlimit:4;stroke-dasharray:none;stroke-opacity:1" />
    <path
       id="path944"
       d="m 85.894592,12.474798 1.32006,-1.13147 16.312108,2.64011 1.60293,1.60292 -2.35724,14.14346 -1.98009,1.22576 -15.840668,-2.45153 -1.50863,-1.69722 z"
       style="display:inline;fill:#fce168;fill-opacity:1;stroke:#000000;stroke-width:1.41115522;stroke-linecap:butt;stroke-linejoin:miter;stroke-miterlimit:4;stroke-dasharray:none;stroke-opacity:1" />
    <path
       id="path837-4"
       d="m 86.896962,53.980448 c -0.65669,-0.007 -1.37278,0.009 -2.12752,0.0419 l 1.81953,4.46433 c 11.78469,22.80796 -12.43476,39.78602 -10.95799,49.044022 6.58663,11.0048 14.37978,12.98207 21.1646,8.60723 -5.1871,0.47099 -10.58105,-2.76643 -15.34377,-10.72389 -1.47677,-9.257982 20.726258,-27.987892 8.94158,-50.795862 -0.59716,-0.45082 -1.86461,-0.61924 -3.49643,-0.63769 z"
       style="display:inline;fill:#b93619;fill-opacity:1;stroke:none;stroke-width:1;stroke-linecap:butt;stroke-linejoin:miter;stroke-miterlimit:4;stroke-dasharray:none;stroke-opacity:1" />
    <path
       id="path946"
       d="m 88.063252,14.737748 1.13148,-1.03718 12.069078,2.07437 0.75432,1.03719 -0.47145,3.6773 -2.640108,-0.18858 -0.37716,2.7344 2.640108,0.66002 -0.84861,4.14875 -1.602918,0.28287 -11.78621,-1.69721 -0.47145,-1.22577 z"
       style="display:inline;fill:#1f0802;fill-opacity:1;stroke:#000000;stroke-width:1.41115522;stroke-linecap:butt;stroke-linejoin:miter;stroke-miterlimit:4;stroke-dasharray:none;stroke-opacity:1" />
    <path
       id="path839-9"
       d="m 37.024552,53.621298 c -5.3795,-0.0628 -9.67666,1.25479 -12.64109,3.94188 -8.130799,11.54557 -8.956759,18.80917 -7.458458,24.71011 0.204499,-4.91631 2.314136,-10.94249 8.105968,-19.11253 5.02588,-4.5256 13.8564,-5.16627 25.28993,-1.87068 11.43354,3.29558 16.73211,1.38875 24.75198,-1.06919 l 12.21992,-0.41134 -0.36845,-1.17719 -1.92288,-4.37906 -10.9058,0.37 c -7.96695,2.45794 -13.23055,4.36479 -24.58868,1.06919 -4.61423,-1.33882 -8.80172,-2.02822 -12.48244,-2.07119 z"
       style="display:inline;fill:#f5a804;fill-opacity:1;stroke:none;stroke-width:1;stroke-linecap:butt;stroke-linejoin:miter;stroke-miterlimit:4;stroke-dasharray:none;stroke-opacity:1" />
    <path
       id="path4702"
       d="m 172.7179,219.52855 c 9.7707,-4.41106 15.44722,-10.68312 9.6217,-22.18337 13.91294,-8.49274 9.65902,-17.23585 3.20724,-23.51972 4.1003,-12.00193 0.79915,-18.82282 -9.35444,-20.84702 0.19262,-12.62666 -5.18345,-18.37438 -17.10525,-16.03617 -1.79276,-4.21724 -4.71515,-15.81127 -19.77794,-8.55262 -6.53314,-6.61163 -13.35323,-10.29644 -21.64884,1.06907 -3.02905,-2.17494 -6.0581,-4.68505 -9.08716,-4.81085 l -2.13815,-4.81085 c 3.25101,0.73987 6.40645,1.16116 10.69078,5.34539 2.71489,-6.88862 13.28289,-14.98978 23.78698,-1.06908 11.77979,-9.47124 20.86133,4.0411 21.38157,9.35444 10.33093,-4.67624 20.43318,4.29788 18.4416,16.83798 8.70524,2.07462 15.52295,6.03679 10.15624,22.18337 11.60862,11.73907 5.9941,19.3913 -3.20724,26.19241 4.20844,9.98715 2.72092,17.53318 -8.01809,21.11429 z"
       style="fill:#aa7e51;fill-opacity:1;stroke:none;stroke-width:0.26499999;stroke-linecap:butt;stroke-linejoin:miter;stroke-miterlimit:4;stroke-dasharray:none;stroke-opacity:1" />
  </g>
</svg>
