<?xml version="1.0" encoding="UTF-8" standalone="no"?>
<svg
   xmlns:dc="http://purl.org/dc/elements/1.1/"
   xmlns:cc="http://creativecommons.org/ns#"
   xmlns:rdf="http://www.w3.org/1999/02/22-rdf-syntax-ns#"
   xmlns:svg="http://www.w3.org/2000/svg"
   xmlns="http://www.w3.org/2000/svg"
   id="svg7540"
   version="1.1"
   viewBox="0 0 143.42905 136.15376"
   height="136.15376mm"
   width="143.42905mm">
  <defs
     id="defs7534" />
  <metadata
     id="metadata7537">
    <rdf:RDF>
      <cc:Work
         rdf:about="">
        <dc:format>image/svg+xml</dc:format>
        <dc:type
           rdf:resource="http://purl.org/dc/dcmitype/StillImage" />
        <dc:title></dc:title>
      </cc:Work>
    </rdf:RDF>
  </metadata>
  <g
     transform="translate(-36.386663,-77.732643)"
     id="layer1">
    <path
       id="path5191"
       d="m 73.113491,203.23305 c -0.430641,-7.68149 -6.853221,-10.7977 -14.69982,-12.82893 v 0 c 1.39896,-4.58053 6.74476,-16.53235 -13.7644,-33.0078 16.76971,-16.02869 13.03034,-31.29778 11.22532,-46.63852 20.029821,4.39756 35.02139,-2.54092 46.504909,-17.372524 10.59013,14.833204 24.84025,12.830424 38.88772,11.759864 -1.45418,16.53578 6.97966,26.22601 24.05425,29.93418 -11.84371,15.79804 -8.70469,28.29989 -2.93997,40.22408 -24.37216,9.91678 -16.07148,24.63126 -14.56619,28.33055 -4.33884,-0.92687 -7.14392,1.21377 -9.35442,4.54358"
       style="display:inline;fill:none;stroke:#000000;stroke-width:0.26458332px;stroke-linecap:butt;stroke-linejoin:miter;stroke-opacity:1" />
    <ellipse
       transform="rotate(42.750251)"
       ry="0.66817379"
       rx="2.80633"
       cy="56.095257"
       cx="251.51215"
       id="path5193"
       style="display:inline;opacity:1;fill:#000000;fill-opacity:1;stroke:none;stroke-width:0.5;stroke-miterlimit:4;stroke-dasharray:none;stroke-opacity:1" />
    <path
       id="path5203"
       d="m 44.649271,157.39632 c -9.33324,-5.12646 -8.06901,0.83147 -8.06901,0.83147 0,0 1.17636,6.42333 8.06901,-0.83147 z"
       style="display:inline;fill:none;stroke:#000000;stroke-width:0.26458332px;stroke-linecap:butt;stroke-linejoin:miter;stroke-opacity:1" />
    <path
       id="path5203-0"
       d="m 58.413671,190.40412 c -10.62794,-0.66085 -6.94553,4.19045 -6.94553,4.19045 0,0 3.80122,5.30976 6.94553,-4.19045 z"
       style="display:inline;fill:none;stroke:#000000;stroke-width:0.26458332px;stroke-linecap:butt;stroke-linejoin:miter;stroke-opacity:1" />
    <path
       id="path5235"
       d="m 55.874591,110.7578 c -8.66704,-3.54576 -12.17814,-7.2918 -10.15624,-8.41899 4.13772,-2.30674 7.54267,3.74738 10.15624,8.41899 z"
       style="display:inline;fill:none;stroke:#000000;stroke-width:0.26458332px;stroke-linecap:butt;stroke-linejoin:miter;stroke-opacity:1" />
    <path
       id="path5237"
       d="m 102.3795,93.385276 c -3.679369,-8.33238 -3.632519,-15.954682 0.53454,-15.501632 5.29813,0.57602 1.47655,10.850982 -0.53454,15.501632 z"
       style="display:inline;fill:none;stroke:#000000;stroke-width:0.26458332px;stroke-linecap:butt;stroke-linejoin:miter;stroke-opacity:1" />
    <path
       id="path5239"
       d="m 141.26722,105.14514 c 3.22447,-3.56839 8.28884,-11.009304 11.24482,-6.922554 3.2199,4.451644 -6.60884,5.488914 -11.24482,6.922554 z"
       style="display:inline;fill:none;stroke:#000000;stroke-width:0.26458332px;stroke-linecap:butt;stroke-linejoin:miter;stroke-opacity:1" />
    <path
       id="path5241"
       d="m 165.32147,135.07932 c 3.60756,-4.86462 12.13573,-5.67708 12.82893,-5.21175 1.02205,0.68608 -2.24022,5.78972 -12.82893,5.21175 z"
       style="display:inline;fill:none;stroke:#000000;stroke-width:0.26458332px;stroke-linecap:butt;stroke-linejoin:miter;stroke-opacity:1" />
    <path
       id="path5243"
       d="m 162.3815,175.3034 c 4.77662,-0.51538 14.29742,2.57734 11.73071,5.78089 -2.48447,3.10091 -7.26023,0.57457 -11.73071,-5.78089 z"
       style="display:inline;fill:none;stroke:#000000;stroke-width:0.26458332px;stroke-linecap:butt;stroke-linejoin:miter;stroke-opacity:1" />
    <path
       id="path5260"
       d="m 147.81531,203.63395 c 2.33874,3.86182 5.36918,6.42859 6.37705,4.02188 0.76831,-1.83466 -3.88962,-3.08108 -6.37705,-4.02188 z"
       style="display:inline;fill:none;stroke:#000000;stroke-width:0.26458332px;stroke-linecap:butt;stroke-linejoin:miter;stroke-opacity:1" />
    <ellipse
       transform="rotate(42.750251)"
       ry="0.66817379"
       rx="2.80633"
       cy="38.925453"
       cx="252.565"
       id="path5193-1"
       style="display:inline;opacity:1;fill:#000000;fill-opacity:1;stroke:none;stroke-width:0.5;stroke-miterlimit:4;stroke-dasharray:none;stroke-opacity:1" />
    <ellipse
       transform="rotate(37.455042)"
       ry="0.66817379"
       rx="2.80633"
       cy="51.621464"
       cx="247.46733"
       id="path5193-7"
       style="display:inline;opacity:1;fill:#000000;fill-opacity:1;stroke:none;stroke-width:0.5;stroke-miterlimit:4;stroke-dasharray:none;stroke-opacity:1" />
    <ellipse
       transform="rotate(14.369617)"
       ry="0.66817379"
       rx="2.80633"
       cy="116.7841"
       cx="209.14375"
       id="path5193-7-0"
       style="display:inline;opacity:1;fill:#000000;fill-opacity:1;stroke:none;stroke-width:0.5;stroke-miterlimit:4;stroke-dasharray:none;stroke-opacity:1" />
    <ellipse
       transform="rotate(14.369617)"
       ry="0.66817379"
       rx="2.80633"
       cy="105.56547"
       cx="209.85634"
       id="path5193-7-0-2"
       style="display:inline;opacity:1;fill:#000000;fill-opacity:1;stroke:none;stroke-width:0.5;stroke-miterlimit:4;stroke-dasharray:none;stroke-opacity:1" />
    <ellipse
       transform="rotate(0.85264284)"
       ry="0.66817379"
       rx="2.80633"
       cy="140.74692"
       cx="178.40445"
       id="path5193-7-0-3"
       style="display:inline;opacity:1;fill:#000000;fill-opacity:1;stroke:none;stroke-width:0.5;stroke-miterlimit:4;stroke-dasharray:none;stroke-opacity:1" />
    <ellipse
       transform="matrix(-0.73431953,0.67880397,0.67880397,0.73431953,0,0)"
       ry="0.66817379"
       rx="2.80633"
       cy="167.29594"
       cx="83.639259"
       id="path5193-1-7"
       style="display:inline;opacity:1;fill:#000000;fill-opacity:1;stroke:none;stroke-width:0.5;stroke-miterlimit:4;stroke-dasharray:none;stroke-opacity:1" />
    <ellipse
       transform="matrix(-0.79383077,0.60813873,0.60813873,0.79383077,0,0)"
       ry="0.66817379"
       rx="2.80633"
       cy="163.75516"
       cx="66.666168"
       id="path5193-7-4"
       style="display:inline;opacity:1;fill:#000000;fill-opacity:1;stroke:none;stroke-width:0.5;stroke-miterlimit:4;stroke-dasharray:none;stroke-opacity:1" />
    <ellipse
       transform="matrix(-0.73431953,0.67880397,0.67880397,0.73431953,0,0)"
       ry="0.66817379"
       rx="2.80633"
       cy="191.08472"
       cx="88.355179"
       id="path5193-4"
       style="display:inline;opacity:1;fill:#000000;fill-opacity:1;stroke:none;stroke-width:0.5;stroke-miterlimit:4;stroke-dasharray:none;stroke-opacity:1" />
    <ellipse
       transform="matrix(-0.9882384,-0.1529211,-0.1529211,0.9882384,0,0)"
       ry="0.77640045"
       rx="3.2608819"
       cy="137.84918"
       cx="-63.538136"
       id="path5193-7-0-4"
       style="display:inline;opacity:1;fill:#000000;fill-opacity:1;stroke:none;stroke-width:0.58098686;stroke-miterlimit:4;stroke-dasharray:none;stroke-opacity:1" />
    <ellipse
       transform="matrix(-0.9882384,-0.1529211,-0.1529211,0.9882384,0,0)"
       ry="0.77640045"
       rx="3.2608819"
       cy="124.81342"
       cx="-62.710133"
       id="path5193-7-0-2-6"
       style="display:inline;opacity:1;fill:#000000;fill-opacity:1;stroke:none;stroke-width:0.58098686;stroke-miterlimit:4;stroke-dasharray:none;stroke-opacity:1" />
    <ellipse
       transform="matrix(-0.92512213,-0.37966965,-0.37966965,0.92512213,0,0)"
       ry="0.77640045"
       rx="3.2608819"
       cy="93.981033"
       cx="-91.267082"
       id="path5193-7-0-3-0"
       style="display:inline;opacity:1;fill:#000000;fill-opacity:1;stroke:none;stroke-width:0.58098686;stroke-miterlimit:4;stroke-dasharray:none;stroke-opacity:1" />
    <ellipse
       transform="rotate(-28.830366)"
       ry="0.66817379"
       rx="2.80633"
       cy="189.02632"
       cx="81.80352"
       id="path5193-7-0-32"
       style="display:inline;opacity:1;fill:#000000;fill-opacity:1;stroke:none;stroke-width:0.5;stroke-miterlimit:4;stroke-dasharray:none;stroke-opacity:1" />
    <ellipse
       transform="rotate(-28.830366)"
       ry="0.66817379"
       rx="2.80633"
       cy="177.80768"
       cx="82.516106"
       id="path5193-7-0-2-7"
       style="display:inline;opacity:1;fill:#000000;fill-opacity:1;stroke:none;stroke-width:0.5;stroke-miterlimit:4;stroke-dasharray:none;stroke-opacity:1" />
    <ellipse
       transform="rotate(-42.347341)"
       ry="0.66817379"
       rx="2.80633"
       cy="181.22441"
       cx="37.705997"
       id="path5193-7-0-3-09"
       style="display:inline;opacity:1;fill:#000000;fill-opacity:1;stroke:none;stroke-width:0.49999997;stroke-miterlimit:4;stroke-dasharray:none;stroke-opacity:1" />
    <ellipse
       transform="rotate(-68.176754)"
       ry="0.66817379"
       rx="2.80633"
       cy="158.42986"
       cx="-39.018639"
       id="path5193-7-0-32-5"
       style="display:inline;opacity:1;fill:#000000;fill-opacity:1;stroke:none;stroke-width:0.49999997;stroke-miterlimit:4;stroke-dasharray:none;stroke-opacity:1" />
    <ellipse
       transform="rotate(-68.176754)"
       ry="0.66817379"
       rx="2.80633"
       cy="147.21123"
       cx="-38.306049"
       id="path5193-7-0-2-7-7"
       style="display:inline;opacity:1;fill:#000000;fill-opacity:1;stroke:none;stroke-width:0.49999997;stroke-miterlimit:4;stroke-dasharray:none;stroke-opacity:1" />
    <ellipse
       transform="rotate(-81.69373)"
       ry="0.66817379"
       rx="2.80633"
       cy="123.23531"
       cx="-72.618057"
       id="path5193-7-0-3-09-9"
       style="display:inline;opacity:1;fill:#000000;fill-opacity:1;stroke:none;stroke-width:0.49999997;stroke-miterlimit:4;stroke-dasharray:none;stroke-opacity:1" />
    <ellipse
       transform="rotate(-108.88011)"
       ry="0.66817379"
       rx="2.80633"
       cy="50.005032"
       cx="-113.74551"
       id="path5193-7-0-32-5-4"
       style="display:inline;opacity:1;fill:#000000;fill-opacity:1;stroke:none;stroke-width:0.49999997;stroke-miterlimit:4;stroke-dasharray:none;stroke-opacity:1" />
    <ellipse
       transform="rotate(-108.88011)"
       ry="0.66817379"
       rx="2.80633"
       cy="38.786404"
       cx="-113.03291"
       id="path5193-7-0-2-7-7-8"
       style="display:inline;opacity:1;fill:#000000;fill-opacity:1;stroke:none;stroke-width:0.49999997;stroke-miterlimit:4;stroke-dasharray:none;stroke-opacity:1" />
    <ellipse
       transform="rotate(-122.39708)"
       ry="0.66817379"
       rx="2.80633"
       cy="0.3475703"
       cx="-119.93256"
       id="path5193-7-0-3-09-9-0"
       style="display:inline;opacity:1;fill:#000000;fill-opacity:1;stroke:none;stroke-width:0.49999997;stroke-miterlimit:4;stroke-dasharray:none;stroke-opacity:1" />
  </g>
</svg>
